<svg width="25" height="25" viewBox="0 0 25 25" fill="none" xmlns="http://www.w3.org/2000/svg">
<path fill-rule="evenodd" clip-rule="evenodd" d="M12.5 0C5.59644 0 0 5.59644 0 12.5C0 19.4036 5.59644 25 12.5 25C19.4036 25 25 19.4036 25 12.5C25 5.59644 19.4036 0 12.5 0ZM13.5175 16.4453C13.3942 16.5752 13.1536 16.6015 13.1536 16.6015H12.3567C12.3567 16.6015 10.5985 16.7052 9.04968 15.1228C7.36066 13.3963 5.86923 9.97098 5.86923 9.97098C5.86923 9.97098 5.78314 9.7463 5.8764 9.63811C5.98139 9.51585 6.26768 9.50817 6.26768 9.50817L8.17256 9.49601C8.17256 9.49601 8.3519 9.52481 8.48037 9.61763C8.58667 9.69445 8.64601 9.8372 8.64601 9.8372C8.64601 9.8372 8.95382 10.6015 9.3614 11.2929C10.1577 12.6429 10.5281 12.938 10.7981 12.7933C11.1919 12.5827 11.0739 10.8851 11.0739 10.8851C11.0739 10.8851 11.0811 10.2693 10.8757 9.99467C10.7165 9.78214 10.4166 9.72005 10.2842 9.70277C10.1766 9.68868 10.3526 9.44415 10.5809 9.33469C10.9239 9.17018 11.5291 9.16058 12.2445 9.16762C12.8021 9.17338 12.9625 9.20731 13.1803 9.25916C13.6858 9.3789 13.67 9.76265 13.636 10.5909C13.6258 10.8385 13.614 11.126 13.614 11.458C13.614 11.5326 13.6118 11.6122 13.6095 11.694C13.5977 12.1183 13.5841 12.6042 13.869 12.785C14.015 12.8772 14.3717 12.7984 15.2645 11.3108C15.6878 10.6054 16.0047 9.77638 16.0047 9.77638C16.0047 9.77638 16.0745 9.62851 16.1821 9.56514C16.2923 9.50049 16.441 9.52033 16.441 9.52033L18.4456 9.50817C18.4456 9.50817 19.0482 9.43711 19.1454 9.70469C19.2478 9.98443 18.9204 10.6386 18.1013 11.7102C17.3243 12.727 16.9462 13.1013 16.9809 13.4324C17.0063 13.6743 17.2521 13.8932 17.7237 14.3226C18.7083 15.2199 18.9722 15.692 19.0356 15.8054C19.0409 15.8148 19.0448 15.8218 19.0475 15.8263C19.489 16.5451 18.5578 16.6015 18.5578 16.6015L16.7768 16.6258C16.7768 16.6258 16.3947 16.7001 15.8912 16.3608C15.6275 16.1832 15.3698 15.8932 15.1243 15.617C14.7495 15.1951 14.4032 14.8054 14.1076 14.8974C13.6114 15.0524 13.6264 16.1015 13.6264 16.1015C13.6264 16.1015 13.6303 16.3262 13.5175 16.4453Z" fill="#0161A2"/>
</svg>
