<svg width="25" height="25" viewBox="0 0 25 25" fill="none" xmlns="http://www.w3.org/2000/svg">
<path fill-rule="evenodd" clip-rule="evenodd" d="M25 12.5C25 19.4036 19.4036 25 12.5 25C5.59644 25 0 19.4036 0 12.5C0 5.59644 5.59644 0 12.5 0C19.4036 0 25 5.59644 25 12.5ZM12.9084 19.4542H12.9115C17.0096 19.4525 20.3427 16.1186 20.3443 12.0214C20.3451 10.0353 19.5727 8.16788 18.1693 6.76298C16.766 5.35801 14.8998 4.58393 12.9114 4.58308C8.81446 4.58308 5.48007 7.91729 5.47844 12.0155C5.47788 13.3255 5.82015 14.6042 6.4706 15.7314L5.41612 19.5831L9.3564 18.5495C10.4421 19.1416 11.6644 19.4537 12.9084 19.4542Z" fill="#2BB741"/>
<path fill-rule="evenodd" clip-rule="evenodd" d="M9.76651 17.3381L9.54092 17.2042L7.2027 17.8176L7.82681 15.5378L7.67991 15.3041C7.06149 14.3205 6.73487 13.1836 6.73535 12.0163C6.7367 8.61005 9.50814 5.83887 12.9159 5.83887C14.566 5.83944 16.1171 6.48285 17.2835 7.65061C18.4499 8.81837 19.0919 10.3705 19.0913 12.0213C19.0899 15.4278 16.3185 18.1992 12.9134 18.1992H12.9109C11.8023 18.1988 10.715 17.901 9.76651 17.3381ZM16.4039 13.6217C16.5334 13.6843 16.6209 13.7266 16.6582 13.7889C16.7046 13.8664 16.7046 14.2382 16.5499 14.6721C16.3951 15.1059 15.6531 15.5019 15.2963 15.5552C14.9763 15.603 14.5714 15.623 14.1265 15.4816C13.8568 15.396 13.5109 15.2817 13.0678 15.0904C11.3266 14.3386 10.15 12.6511 9.92763 12.3321C9.91205 12.3098 9.90115 12.2941 9.89507 12.286L9.89357 12.284C9.79528 12.1529 9.13672 11.2742 9.13672 10.3648C9.13672 9.5093 9.55695 9.0609 9.75038 8.8545C9.76363 8.84036 9.77582 8.82735 9.78673 8.81543C9.95697 8.62949 10.1582 8.58301 10.282 8.58301C10.4058 8.58301 10.5297 8.58415 10.6379 8.58959C10.6513 8.59026 10.6652 8.59018 10.6795 8.59009C10.7878 8.58946 10.9227 8.58867 11.0558 8.9084C11.107 9.03145 11.182 9.21388 11.261 9.40629C11.4208 9.79535 11.5974 10.2252 11.6284 10.2874C11.6749 10.3804 11.7058 10.4888 11.6439 10.6128C11.6346 10.6314 11.626 10.6489 11.6178 10.6657C11.5713 10.7606 11.5371 10.8305 11.4582 10.9226C11.4272 10.9588 11.3951 10.9979 11.363 11.037C11.2991 11.1148 11.2352 11.1926 11.1796 11.248C11.0866 11.3406 10.9898 11.4411 11.0982 11.627C11.2065 11.813 11.5793 12.4211 12.1314 12.9136C12.7249 13.443 13.2407 13.6667 13.5022 13.7801C13.5532 13.8023 13.5946 13.8202 13.6249 13.8354C13.8106 13.9284 13.9189 13.9128 14.0273 13.7889C14.1356 13.665 14.4915 13.2466 14.6153 13.0607C14.7391 12.8748 14.863 12.9058 15.0332 12.9677C15.2035 13.0298 16.1166 13.479 16.3023 13.572C16.3385 13.5901 16.3724 13.6065 16.4039 13.6217Z" fill="#2BB741"/>
</svg>
