<svg width="77" height="42" viewBox="0 0 77 42" fill="none" xmlns="http://www.w3.org/2000/svg">
<path d="M38.5158 1.93899C39.3299 1.93899 40.1441 1.93899 40.9582 1.93899C41.3966 1.93899 41.835 1.97026 42.2734 2.00153C42.5552 2.00153 42.8684 2.03281 43.1502 2.06408C43.432 2.09535 43.7138 2.09535 43.9643 2.12663C44.2148 2.1579 44.4653 2.12663 44.6845 2.18917C44.9664 2.28299 45.2482 2.18917 45.4987 2.28299C45.5613 2.31427 45.6239 2.28299 45.6866 2.28299C45.8118 2.28299 45.9371 2.31427 46.0623 2.34554C46.0937 2.34554 46.125 2.34554 46.1563 2.37681C46.3755 2.40809 46.5947 2.40809 46.8452 2.40809C47.1583 2.43936 47.4714 2.43936 47.7846 2.50191C48.0664 2.56445 48.3482 2.56445 48.5987 2.627C48.9432 2.72082 49.2876 2.72082 49.6321 2.78337C49.7886 2.81464 49.9452 2.84591 50.1018 2.87719C50.2897 2.90846 50.4462 2.93973 50.6341 2.97101C50.8533 3.00228 51.1038 3.06483 51.323 3.0961C51.4796 3.12737 51.6361 3.15865 51.7927 3.18992C51.918 3.22119 52.0432 3.25247 52.1685 3.25247C52.2937 3.28374 52.3877 3.31501 52.5129 3.34629C52.8574 3.40883 53.2331 3.47138 53.5776 3.59647C53.8594 3.69029 54.1725 3.72156 54.4857 3.81538C54.9241 3.94048 55.3311 4.0343 55.7695 4.15939C56.0827 4.25321 56.3958 4.31576 56.7089 4.40958C57.1786 4.56594 57.6483 4.72231 58.118 4.87868C58.3999 4.9725 58.6817 5.06631 58.9635 5.16013C59.4645 5.34777 59.9655 5.53541 60.4666 5.72305C61.0615 5.94197 61.6565 6.19215 62.2201 6.44234C63.003 6.78635 63.7858 7.16162 64.5686 7.56818C65.101 7.84964 65.602 8.1311 66.103 8.44383C66.5727 8.72529 67.0424 9.00675 67.5121 9.31948C68.0131 9.66349 68.5141 10.0075 69.0152 10.3515C69.2657 10.5391 69.5162 10.758 69.7667 10.977C70.0798 11.2584 70.393 11.5399 70.7061 11.8213C71.1758 12.2592 71.6142 12.697 72.0213 13.1974C72.491 13.729 72.898 14.2919 73.3051 14.8548C73.5556 15.2301 73.7748 15.668 73.994 16.0432C74.2758 16.4811 74.4324 16.9814 74.6203 17.4818C74.8082 17.9822 74.996 18.5138 75.09 19.0455C75.1213 19.2331 75.1213 19.452 75.1839 19.6397C75.3718 20.484 75.2466 21.3284 75.2779 22.1728C75.2779 22.3917 75.2152 22.6106 75.1839 22.8295C75.1526 23.0797 75.1213 23.3299 75.0587 23.5801C74.996 23.9241 74.9021 24.2368 74.7769 24.5496C74.6516 24.8623 74.5577 25.175 74.4324 25.4878C74.2445 26.0194 73.9627 26.5511 73.6496 27.0202C73.4617 27.3329 73.2738 27.6456 73.0546 27.9271C72.6788 28.4587 72.2718 28.9904 71.8334 29.4595C71.5516 29.8035 71.2384 30.1162 70.894 30.3977C70.4869 30.8042 70.0798 31.1795 69.6414 31.5548C69.297 31.8675 68.9212 32.149 68.5455 32.4304C68.1697 32.7119 67.7626 32.9933 67.3555 33.2748C67.2616 33.3374 67.199 33.3686 67.105 33.4312C66.7293 33.6814 66.3535 33.9315 65.9464 34.1505C65.4141 34.4632 64.8818 34.7446 64.3494 35.0261C63.8171 35.3076 63.2535 35.5578 62.6898 35.8392C62.3454 35.9956 61.9696 36.1832 61.5938 36.3083C60.8423 36.621 60.0908 36.9025 59.3393 37.184C58.9948 37.3091 58.6191 37.4342 58.2746 37.5592C57.9928 37.6531 57.711 37.7469 57.4291 37.8407C57.116 37.9345 56.8342 38.0283 56.5211 38.1222C56.1453 38.216 55.8008 38.3411 55.4251 38.4349C54.9554 38.56 54.4857 38.6538 54.016 38.7789C53.7342 38.8414 53.4836 38.9353 53.2018 38.9978C52.8887 39.0604 52.5442 39.1229 52.2311 39.2167C52.0119 39.2793 51.824 39.3105 51.6048 39.3418C51.323 39.3731 51.0725 39.4044 50.7907 39.4982C50.6341 39.5295 50.4462 39.4982 50.2897 39.592C50.1957 39.6233 50.1018 39.6233 49.9765 39.6546C49.6947 39.6858 49.4129 39.7484 49.0998 39.7796C48.9119 39.8109 48.724 39.8422 48.5361 39.8735C48.4109 39.9047 48.2543 39.9047 48.129 39.936C47.9098 39.9673 47.6906 39.9986 47.4714 40.0298C47.2523 40.0611 47.0331 40.0924 46.8139 40.1237C46.6573 40.1549 46.5007 40.1862 46.3128 40.1862C46.0623 40.2175 45.8431 40.2175 45.5926 40.2487C45.3421 40.28 45.0603 40.2487 44.8098 40.3113C44.3401 40.4051 43.8391 40.4051 43.3694 40.4364C43.0562 40.4677 42.7118 40.4989 42.3986 40.4989C42.1168 40.4989 41.835 40.5302 41.5219 40.5302C41.2401 40.5615 40.9582 40.5928 40.6764 40.5928C39.2986 40.5928 37.9208 40.5928 36.5117 40.5928C36.2299 40.5928 35.9794 40.5615 35.6976 40.5302C35.3844 40.4989 35.04 40.5302 34.7268 40.4989C34.3824 40.4989 34.0692 40.4989 33.7248 40.4364C33.4743 40.4051 33.2238 40.4051 32.9733 40.3738C32.7228 40.3426 32.4723 40.3738 32.2218 40.3113C31.8147 40.2487 31.4389 40.2175 31.0318 40.1862C30.6561 40.1549 30.249 40.0924 29.8732 40.0298C29.7167 39.9986 29.5914 39.9986 29.4348 39.9986C29.2156 39.9673 28.9965 39.936 28.7773 39.9047C28.5894 39.8735 28.3702 39.8422 28.1823 39.8109C28.057 39.7796 27.9318 39.7796 27.8065 39.7484C27.65 39.7171 27.4621 39.7171 27.3055 39.6858C27.0237 39.6233 26.7419 39.5607 26.4601 39.4982C26.3348 39.4669 26.2096 39.4669 26.0843 39.4356C25.8964 39.4044 25.7085 39.3731 25.552 39.3418C25.4267 39.3105 25.3015 39.3105 25.1762 39.2793C24.7378 39.2167 24.2994 39.1229 23.8923 38.9978C23.6105 38.9353 23.2974 38.8727 23.0156 38.8102C22.7337 38.7476 22.4832 38.6538 22.2014 38.5913C22.1075 38.56 22.0448 38.5287 21.9509 38.5287C21.4812 38.4662 21.0428 38.3098 20.6044 38.1847C20.1347 38.0596 19.665 37.872 19.1953 37.7156C19.1014 37.6843 18.9761 37.6843 18.8822 37.6531C18.5377 37.528 18.1933 37.4342 17.8488 37.3091C17.4104 37.1527 17.0034 36.965 16.565 36.84C16.1266 36.7149 15.6882 36.496 15.2498 36.3083C14.6862 36.0581 14.0912 35.8079 13.5276 35.5578C12.9639 35.2763 12.4003 34.9948 11.8366 34.6821C11.273 34.3694 10.7093 34.0566 10.1457 33.6814C9.58206 33.3374 9.04973 32.9621 8.5174 32.5868C8.14163 32.3053 7.76587 31.9926 7.39011 31.7111C6.95172 31.3984 6.54464 30.9919 6.13757 30.6166C5.66786 30.1788 5.22948 29.7097 4.8224 29.2406C4.29007 28.6151 3.82037 27.9583 3.38198 27.2703C3.13147 26.8638 2.91227 26.4572 2.72439 26.0194C2.44257 25.4565 2.25469 24.8623 2.03549 24.2681C1.91024 23.9241 1.8163 23.5801 1.78499 23.2048C1.75367 22.8921 1.69105 22.5793 1.62842 22.2666C1.62842 22.2041 1.62842 22.1415 1.62842 22.1102C1.62842 21.6411 1.62842 21.2033 1.62842 20.7342C1.62842 20.3589 1.62842 20.0149 1.72236 19.6709C1.78499 19.3582 1.8163 19.0142 1.91024 18.7015C2.03549 18.2324 2.19206 17.7945 2.34863 17.3567C2.47388 17.0127 2.59914 16.7 2.78702 16.356C3.10015 15.7618 3.41329 15.1676 3.82037 14.6047C3.97693 14.417 4.10219 14.1981 4.22744 14.0105C4.50926 13.6352 4.8224 13.2912 5.13553 12.9159C5.22948 12.7908 5.35473 12.697 5.44867 12.6032C5.79312 12.2592 6.16888 11.8839 6.51333 11.5712C6.85778 11.2271 7.23354 10.9144 7.6093 10.6017C7.73456 10.5079 7.85981 10.414 7.95375 10.3202C8.36083 10.0075 8.76791 9.69476 9.2063 9.4133C9.73863 9.06929 10.2396 8.69401 10.8033 8.41255C11.2104 8.19364 11.5861 7.94346 11.9932 7.72454C12.4003 7.50563 12.8387 7.28672 13.2457 7.09908C13.8407 6.81762 14.467 6.53616 15.0619 6.2547C15.4377 6.09833 15.8448 5.94197 16.2205 5.7856C16.6276 5.62923 17.066 5.44159 17.4731 5.28523C18.0054 5.09759 18.569 4.94122 19.1014 4.75358C19.4771 4.62849 19.8529 4.5034 20.2287 4.3783C20.5105 4.28448 20.7923 4.22194 21.0741 4.15939C21.5125 4.0343 21.9196 3.9092 22.358 3.81538C22.6398 3.75284 22.9529 3.69029 23.2348 3.59647C23.5166 3.53392 23.7984 3.44011 24.1115 3.37756C24.2994 3.34629 24.4873 3.31501 24.7065 3.28374C24.8631 3.25247 24.9883 3.22119 25.1449 3.18992C25.4267 3.12737 25.7085 3.0961 26.0217 3.03355C26.1782 3.00228 26.3035 2.97101 26.4601 2.93973C26.554 2.90846 26.6793 2.90846 26.7732 2.87719C27.0863 2.84591 27.3682 2.78337 27.6813 2.75209C27.8692 2.72082 28.057 2.68955 28.2449 2.65827C28.3702 2.627 28.4641 2.627 28.5894 2.59573C28.9965 2.53318 29.2156 2.50191 29.4348 2.47063C29.6854 2.43936 29.9045 2.40809 30.1551 2.37681C30.3116 2.37681 30.4369 2.34554 30.5934 2.34554C30.844 2.31427 31.1258 2.28299 31.3763 2.25172C31.6894 2.18917 32.0026 2.25172 32.3157 2.1579C32.347 2.1579 32.347 2.1579 32.3783 2.1579C32.6915 2.12663 33.0359 2.12663 33.349 2.09535C33.5056 2.09535 33.6309 2.06408 33.7874 2.06408C33.944 2.06408 34.0692 2.03281 34.2258 2.03281C34.7581 2.00153 35.2592 2.00153 35.7915 1.97026C36.543 1.90771 37.2945 1.93899 38.0461 1.90771C38.1713 1.90771 38.3279 1.90771 38.5158 1.93899ZM36.4178 3.97175C36.4178 4.00302 36.4178 4.00302 36.4178 3.97175C36.1359 3.97175 35.8541 3.97175 35.6036 3.97175C35.3218 3.97175 35.04 4.00302 34.7581 4.0343C34.6329 4.0343 34.539 4.0343 34.4137 4.0343C34.0379 4.06557 33.6309 4.09684 33.2551 4.12812C32.942 4.15939 32.6288 4.15939 32.3157 4.15939C32.2844 4.15939 32.2531 4.15939 32.2218 4.19066C32.0652 4.22194 31.9086 4.22194 31.7207 4.25321C31.6581 4.25321 31.6268 4.25321 31.5642 4.25321C31.2823 4.28448 31.0318 4.34703 30.75 4.3783C30.5308 4.40958 30.3116 4.40958 30.0611 4.44085C29.9359 4.44085 29.7793 4.47212 29.654 4.5034C29.4348 4.53467 29.2156 4.56594 28.9965 4.59722C28.7773 4.62849 28.5894 4.65976 28.3702 4.69104C28.1823 4.72231 28.0257 4.75358 27.8379 4.78486C27.4621 4.8474 27.0863 4.90995 26.6793 4.9725C26.3974 5.03504 26.0843 5.06631 25.8025 5.12886C25.6146 5.16013 25.4267 5.19141 25.2075 5.25395C24.9883 5.3165 24.7691 5.37905 24.5186 5.44159C24.1742 5.53541 23.7984 5.56669 23.454 5.66051C23.1408 5.75433 22.7964 5.84815 22.4832 5.91069C22.1701 5.97324 21.8883 6.06706 21.5751 6.16088C21.1994 6.28597 20.8236 6.37979 20.4165 6.50489C20.166 6.5987 19.8842 6.66125 19.6337 6.75507C19.3206 6.84889 19.0074 6.94271 18.7256 7.03653C18.1933 7.22417 17.6609 7.44308 17.0973 7.63072C16.565 7.84964 16.0326 8.06855 15.5316 8.28746C15.0932 8.4751 14.6862 8.69401 14.2791 8.88165C13.966 9.03802 13.6215 9.19439 13.3084 9.35075C12.776 9.63221 12.275 9.91367 11.774 10.2264C11.273 10.5079 10.8033 10.8206 10.3336 11.1333C9.80125 11.5086 9.30024 11.9152 8.79922 12.2904C8.64265 12.4155 8.5174 12.5406 8.39214 12.6657C8.01638 13.0097 7.6093 13.3537 7.23354 13.6977C7.04566 13.8854 6.88909 14.1043 6.70121 14.2919C5.91837 15.105 5.2921 16.0432 4.79109 17.044C4.50926 17.6069 4.25876 18.2011 4.10219 18.7953C3.97693 19.2957 3.88299 19.796 3.82037 20.2964C3.78905 20.5466 3.78905 20.828 3.78905 21.1095C3.78905 21.4535 3.82037 21.7662 3.82037 22.1102V22.1415C3.88299 22.4543 3.94562 22.767 4.00825 23.0797C4.07087 23.3925 4.1335 23.6739 4.22744 23.9866C4.44664 24.6747 4.79109 25.3314 5.13553 25.9881C5.38604 26.426 5.69918 26.8638 5.981 27.2703C6.23151 27.6143 6.54464 27.9271 6.82647 28.2711C7.26485 28.7715 7.73456 29.2093 8.23557 29.6471C8.73659 30.0849 9.23761 30.4915 9.76994 30.8668C10.2396 31.1795 10.678 31.4922 11.1477 31.805C11.7114 32.1802 12.3063 32.5242 12.9013 32.837C13.3084 33.0559 13.7154 33.2435 14.1225 33.4624C14.2478 33.525 14.373 33.5875 14.467 33.6501C15.0932 33.9315 15.7195 34.213 16.3458 34.4945C16.7529 34.6821 17.1599 34.8385 17.567 34.9948C18.0993 35.1825 18.663 35.3388 19.1953 35.5578C19.6963 35.7767 20.2287 35.9018 20.761 36.0581C21.3246 36.2458 21.8883 36.3709 22.4832 36.5585C22.7337 36.621 23.0156 36.7149 23.2661 36.7774C23.6105 36.8712 23.9863 36.9338 24.3307 36.9963C24.4247 37.0276 24.5186 37.0276 24.6126 37.0589C24.8631 37.1214 25.0823 37.184 25.3328 37.2465C25.6459 37.3091 25.9904 37.3716 26.3035 37.4341C26.554 37.4967 26.8045 37.528 27.055 37.5905C27.1803 37.6218 27.2742 37.6218 27.3995 37.6218C27.6813 37.6531 27.9944 37.7156 28.2762 37.7469C28.4641 37.7782 28.6207 37.8407 28.8086 37.8407C29.0904 37.872 29.4035 37.9032 29.6854 37.9658C29.8106 37.9971 29.9359 37.9971 30.0611 38.0283C30.2803 38.0596 30.5308 38.0596 30.75 38.0909C30.7813 38.0909 30.8126 38.0909 30.844 38.1222C30.9692 38.1534 31.0631 38.1534 31.1884 38.1847C31.251 38.1847 31.3137 38.1847 31.345 38.1847C31.6268 38.2785 31.9086 38.216 32.1904 38.2785C32.5036 38.3723 32.848 38.3411 33.1612 38.3411C33.1925 38.3411 33.2238 38.3411 33.2551 38.3411C33.6309 38.3723 33.9753 38.4349 34.3511 38.4349C34.7268 38.4662 35.1026 38.4662 35.4784 38.4662C36.2299 38.4974 36.9814 38.5287 37.7329 38.5287C38.3905 38.5287 39.0481 38.5287 39.7057 38.4974C40.3946 38.4662 41.0522 38.5287 41.7411 38.4349C42.0542 38.4036 42.3986 38.4349 42.7118 38.4036C43.1189 38.3411 43.5573 38.3411 43.9956 38.3411C44.027 38.3411 44.0896 38.3411 44.1209 38.3411C44.4027 38.3098 44.7159 38.2785 44.9977 38.2473C45.029 38.2473 45.029 38.2473 45.0603 38.2473C45.3108 38.216 45.5613 38.216 45.8118 38.1847C45.8431 38.1847 45.8745 38.1534 45.8745 38.1534C45.9684 38.1222 46.0623 38.1222 46.125 38.1222C46.3442 38.0909 46.5634 38.0909 46.7825 38.0596C46.9391 38.0283 47.0957 38.0283 47.2522 37.9971C47.4401 37.9658 47.628 37.9345 47.8159 37.9032C48.0038 37.872 48.223 37.8407 48.4109 37.8094C48.5361 37.7782 48.6614 37.8094 48.7866 37.7469C49.0684 37.6531 49.3816 37.6531 49.6634 37.5905C49.9452 37.528 50.1957 37.4967 50.4775 37.4341C50.5715 37.4029 50.6654 37.4029 50.7907 37.3716C50.9159 37.3403 51.0725 37.3091 51.1978 37.2778C51.5109 37.2152 51.824 37.1527 52.1058 37.0901C52.3564 37.0276 52.6069 36.965 52.8574 36.9025C53.1079 36.84 53.3271 36.8087 53.5776 36.7461C53.7968 36.6836 53.9847 36.621 54.2039 36.5585C54.4544 36.496 54.7049 36.4334 54.9554 36.3709C55.3938 36.2458 55.8322 36.1207 56.2705 35.9643C56.5837 35.8705 56.8968 35.8079 57.1786 35.6828C57.8362 35.4639 58.4938 35.2137 59.1514 34.9948C59.5898 34.8385 60.0282 34.6508 60.4352 34.4632C60.905 34.2755 61.3747 34.0566 61.8444 33.869C62.1888 33.7126 62.5333 33.525 62.8777 33.3686C63.504 33.0246 64.1616 32.6806 64.7878 32.3366C65.1949 32.0864 65.6333 31.8362 66.0091 31.586C66.3222 31.3671 66.6353 31.1482 66.9172 30.9293C67.2303 30.7104 67.5434 30.4915 67.8252 30.2413C68.201 29.9286 68.5768 29.6158 68.9525 29.2718C69.3596 28.8653 69.7667 28.4587 70.1738 28.0522C70.393 27.802 70.6122 27.5518 70.8 27.2703C71.0505 26.9263 71.2697 26.5823 71.5202 26.2383C71.8647 25.7067 72.1465 25.175 72.3657 24.5808C72.5536 24.1117 72.7102 23.6426 72.8354 23.1735C72.9294 22.8295 72.9607 22.4855 73.0233 22.1415C73.0546 21.8601 73.0859 21.5473 73.0546 21.2659C73.0233 20.8906 73.0546 20.5153 72.9607 20.14C72.9294 19.9524 72.9294 19.7335 72.8667 19.5458C72.7728 19.2331 72.7102 18.8891 72.5849 18.5764C72.3657 18.0135 72.1778 17.4193 71.896 16.8876C71.4889 16.1371 71.0192 15.4178 70.4556 14.761C70.1111 14.3232 69.7354 13.8854 69.3283 13.5414C69.0152 13.2599 68.7333 12.9785 68.4202 12.7283C68.0758 12.4468 67.7313 12.1341 67.3555 11.8839C66.8858 11.5399 66.4474 11.1959 65.9777 10.9144C65.4454 10.6017 64.9444 10.2577 64.4121 9.94494C63.8797 9.63221 63.3161 9.35075 62.7838 9.06929C62.2201 8.78783 61.6565 8.53765 61.0928 8.28746C60.5918 8.06855 60.0595 7.84964 59.5272 7.662C58.9948 7.44308 58.4625 7.25544 57.8988 7.0678C57.4605 6.91144 57.0221 6.78635 56.5837 6.62998C56.3645 6.56743 56.1453 6.50489 55.9574 6.44234C55.6756 6.34852 55.3625 6.2547 55.0806 6.16088C54.7988 6.06706 54.5483 6.00451 54.2665 5.94197C53.9847 5.87942 53.7028 5.81687 53.421 5.75433C53.1392 5.69178 52.8574 5.59796 52.5756 5.53541C52.325 5.47287 52.1059 5.44159 51.8553 5.37905C51.7301 5.34777 51.6048 5.3165 51.4483 5.28523C51.2291 5.25395 51.0412 5.22268 50.822 5.16013C50.7594 5.16013 50.6654 5.12886 50.6028 5.09759C50.4462 5.06631 50.321 5.06632 50.1644 5.03504C49.8513 4.9725 49.5381 4.90995 49.225 4.87868C49.0997 4.87868 48.9745 4.8474 48.8492 4.81613C48.6614 4.78486 48.4735 4.75358 48.2543 4.72231C48.0351 4.69104 47.8472 4.65976 47.628 4.62849C47.5028 4.59722 47.3775 4.59722 47.2522 4.56594C47.0644 4.53467 46.8452 4.5034 46.6573 4.47212C46.4381 4.44085 46.1876 4.44085 45.9684 4.40958C45.9371 4.40958 45.9058 4.40958 45.8745 4.40958C45.7492 4.34703 45.6239 4.34703 45.4987 4.34703C45.4361 4.34703 45.3734 4.34703 45.3421 4.34703C45.0603 4.31576 44.8098 4.25321 44.528 4.22194C44.0896 4.19066 43.6512 4.15939 43.1815 4.12812C42.8997 4.09684 42.6178 4.09684 42.336 4.06557C41.9289 4.06557 41.5532 4.0343 41.1774 4.00302C40.4572 3.94048 39.7057 3.94048 38.9855 3.94048C38.2966 3.94048 37.3572 3.97175 36.4178 3.97175Z" fill="white"/>
<path d="M72.1151 21.2346C72.0838 21.5473 72.0838 21.8913 72.0525 22.2041C71.9899 22.5481 71.9585 22.8921 71.8333 23.2361C71.802 23.3612 71.7707 23.4863 71.7394 23.5801C71.6141 24.1117 71.3636 24.5808 71.1131 25.0499C70.8939 25.4565 70.6434 25.863 70.3616 26.2383C70.0171 26.7074 69.6727 27.1452 69.2656 27.5518C68.8272 28.0209 68.3262 28.49 67.8252 28.9278C67.4494 29.2405 67.0736 29.5533 66.6979 29.8347C66.1342 30.2413 65.5393 30.6478 64.9443 31.0231C64.3494 31.3984 63.7544 31.7111 63.1594 32.0551C62.4706 32.4304 61.7817 32.7432 61.0614 33.0872C60.5604 33.3061 60.0281 33.525 59.5271 33.7439C59.0574 33.9315 58.5564 34.1192 58.0867 34.2755C57.4604 34.4945 56.8341 34.7134 56.2078 34.9323C55.8947 35.0261 55.5503 35.1199 55.2371 35.2137C54.83 35.3388 54.423 35.4326 54.0472 35.5577C53.5462 35.6828 53.0765 35.8079 52.5755 35.933C52.1371 36.0268 51.6987 36.1207 51.2916 36.2145C50.9472 36.277 50.6027 36.3396 50.2583 36.4021C50.1017 36.4334 49.9764 36.4647 49.8199 36.4959C49.5067 36.5585 49.2249 36.5898 48.9118 36.6523C48.7239 36.6836 48.536 36.7149 48.3795 36.7461C48.2229 36.7774 48.035 36.8087 47.8784 36.8087C47.6906 36.8399 47.4714 36.8399 47.2835 36.8399C47.1269 36.8712 46.9703 36.9025 46.8138 36.9025C46.5633 36.9338 46.2814 36.965 46.0309 36.9963C45.7491 37.0276 45.436 37.0901 45.1542 37.1214C45.1228 37.1214 45.0602 37.1214 45.0289 37.1214C44.841 37.1527 44.6531 37.1527 44.4653 37.184C44.4339 37.184 44.4026 37.2152 44.3713 37.2152C44.0269 37.2465 43.7137 37.2465 43.3693 37.2778C43.1188 37.2778 42.8996 37.309 42.6491 37.3403C42.2107 37.3716 41.7723 37.4029 41.3652 37.4029C41.0521 37.4341 40.7703 37.4341 40.4571 37.4341C39.3298 37.4341 38.2026 37.4341 37.0753 37.4341C36.3864 37.4341 35.7288 37.4029 35.0399 37.3716C34.6954 37.3716 34.351 37.3403 34.0065 37.309C33.8187 37.309 33.6308 37.2778 33.4429 37.2778C33.1611 37.2465 32.8793 37.2778 32.6287 37.2152C32.3469 37.1527 32.0651 37.2152 31.7833 37.1214H31.752C31.3136 37.0901 30.8752 37.0276 30.4368 36.9963C30.0923 36.965 29.7792 36.9025 29.4348 36.8399C29.2469 36.8087 29.0903 36.8087 28.9024 36.7774C28.464 36.7149 28.0257 36.6523 27.556 36.5585C27.4307 36.5272 27.3054 36.4959 27.1489 36.4959C26.961 36.4647 26.8044 36.4334 26.6165 36.4021C26.3034 36.3396 25.959 36.277 25.6458 36.1832C25.3014 36.1207 24.9882 36.0268 24.6438 35.9643C24.4559 35.933 24.268 35.9017 24.1115 35.8705C23.8296 35.8079 23.5165 35.7454 23.2347 35.6516C22.8276 35.5577 22.3892 35.4326 21.9821 35.3076C21.3246 35.1199 20.6983 34.9323 20.0407 34.7134C19.3205 34.4945 18.6316 34.2443 17.9427 33.9941C17.5356 33.8377 17.1599 33.6188 16.7215 33.4937C16.3144 33.3373 15.9073 33.1497 15.5315 32.9621C14.7487 32.5868 13.9346 32.2115 13.183 31.7737C12.8073 31.5548 12.4315 31.3671 12.0871 31.1169C11.586 30.8042 11.1163 30.4915 10.6466 30.1475C10.1143 29.7722 9.61329 29.3969 9.11227 28.9591C8.64257 28.5525 8.17287 28.0834 7.73448 27.6456C7.17084 27.0827 6.70113 26.4259 6.26274 25.7379C5.88698 25.1437 5.57384 24.5183 5.35465 23.8615C5.26071 23.5801 5.16677 23.2673 5.07283 22.9859C5.04151 22.8921 5.04151 22.7983 5.04151 22.7044C5.0102 22.4855 5.0102 22.2666 4.97889 22.0477C4.88495 21.6411 4.91626 21.2346 4.94757 20.828C4.94757 20.5778 4.97889 20.2964 5.04151 20.0462C5.07283 19.9211 5.07283 19.796 5.10414 19.6709C5.16677 19.3582 5.2294 19.0455 5.35465 18.764C5.54253 18.2949 5.73041 17.7945 5.98092 17.3567C6.1688 16.9814 6.41931 16.6374 6.6385 16.2934C7.04558 15.6992 7.51528 15.1676 7.98499 14.6672C8.29812 14.3232 8.64257 14.0105 8.98702 13.6977C9.61329 13.1348 10.2709 12.6344 10.9598 12.1653C11.4921 11.8213 11.9931 11.4773 12.5568 11.1333C13.0578 10.8206 13.5588 10.5391 14.0598 10.2889C14.6548 9.97621 15.2497 9.69475 15.876 9.41329C16.5649 9.10056 17.2538 8.8191 17.9427 8.53764C18.4437 8.35 18.9447 8.19363 19.4457 8.00599C19.6963 7.91217 19.9781 7.81836 20.2286 7.72454C20.7296 7.56817 21.2619 7.4118 21.7629 7.25544C22.2326 7.13034 22.7024 7.00525 23.1721 6.88016C23.4539 6.81761 23.767 6.75506 24.0488 6.69252C24.3307 6.62997 24.6438 6.53615 24.9256 6.4736C25.0196 6.44233 25.1135 6.41106 25.2074 6.41106C25.5206 6.34851 25.865 6.28596 26.1782 6.22342C26.46 6.16087 26.7105 6.09832 26.9923 6.03578C27.3368 5.97323 27.6812 5.94196 28.057 5.87941C28.2448 5.84814 28.4014 5.81687 28.5893 5.78559C28.8398 5.75432 29.0903 5.69177 29.3408 5.6605C29.5287 5.6605 29.7166 5.59795 29.8732 5.56668C30.0297 5.53541 30.2176 5.50413 30.3742 5.50413C30.5934 5.47286 30.8439 5.47286 31.0631 5.44159C31.1257 5.44159 31.1883 5.41031 31.2509 5.41031C31.2823 5.41031 31.3449 5.37904 31.3762 5.37904C31.6267 5.34777 31.8772 5.34777 32.1277 5.31649C32.253 5.31649 32.3469 5.28522 32.4722 5.28522C32.5035 5.28522 32.5661 5.25395 32.5974 5.25395C32.8793 5.22267 33.1924 5.22267 33.4742 5.1914C33.9439 5.16013 34.4449 5.12885 34.9146 5.09758C34.9459 5.09758 34.9773 5.09758 35.0086 5.09758C36.8561 5.03503 38.7036 5.03503 40.5511 5.03503C41.0208 5.03503 41.4905 5.06631 41.9602 5.09758C42.3046 5.12885 42.6178 5.12885 42.9309 5.16013C43.244 5.1914 43.5572 5.22267 43.8703 5.25395C43.9329 5.25395 43.9956 5.25395 44.0582 5.25395C44.1521 5.25395 44.2148 5.22267 44.3087 5.25395C44.5279 5.31649 44.7784 5.28522 44.9663 5.31649C45.2168 5.37904 45.4986 5.28522 45.7491 5.41031C45.7804 5.41031 45.7804 5.41031 45.8117 5.41031C46.1562 5.44159 46.532 5.47286 46.8764 5.50413C47.1895 5.53541 47.5027 5.56668 47.8158 5.62923C48.1289 5.69177 48.4421 5.75432 48.7865 5.81687C48.8492 5.81687 48.9118 5.81687 48.9744 5.84814C49.2249 5.87941 49.5067 5.91069 49.7573 5.97323C50.0391 6.00451 50.2896 6.06705 50.5714 6.09833C50.7906 6.1296 51.0098 6.19214 51.1977 6.22342C51.4482 6.28596 51.6987 6.31724 51.9492 6.37978C52.231 6.44233 52.5442 6.53615 52.826 6.5987C53.0139 6.62997 53.2017 6.66124 53.4209 6.72379C53.6714 6.78634 53.9533 6.84888 54.2038 6.9427C54.7987 7.09907 55.3624 7.28671 55.9573 7.44308C56.3018 7.5369 56.6462 7.63071 56.9594 7.75581C57.5543 7.97472 58.1493 8.19363 58.7442 8.38127C59.4645 8.63146 60.1533 8.94419 60.8109 9.22565C61.218 9.41329 61.6251 9.56966 62.0322 9.7573C62.2514 9.85112 62.4392 9.94494 62.6271 10.07C63.1594 10.3515 63.6605 10.6329 64.1928 10.9144C64.9443 11.321 65.6958 11.8213 66.3847 12.3217C66.8544 12.6657 67.3242 13.041 67.7939 13.4475C68.1383 13.729 68.4514 14.0105 68.7333 14.3232C69.109 14.6985 69.4848 15.0738 69.7979 15.4803C70.1111 15.8556 70.4242 16.2934 70.6747 16.7C71.0191 17.2629 71.3323 17.8571 71.5828 18.5138C71.6767 18.7953 71.7394 19.0767 71.802 19.3582C71.8646 19.6084 71.9272 19.8273 71.9586 20.0775C71.9899 20.2651 71.9899 20.484 72.0212 20.7029C72.1151 20.9219 72.0838 21.0782 72.1151 21.2346ZM71.1757 21.2346C71.1757 20.9844 71.207 20.7342 71.1757 20.484C71.1131 20.1087 71.0505 19.7647 70.9565 19.4207C70.8939 19.1706 70.8313 18.9516 70.7373 18.7327C70.5808 18.3887 70.4242 18.0447 70.2676 17.732C70.1424 17.4818 70.0171 17.2629 69.8605 17.044C69.61 16.7 69.3595 16.3872 69.109 16.0745C68.8272 15.6679 68.4514 15.3552 68.107 14.9799C67.8878 14.761 67.6373 14.5734 67.4181 14.3545C67.2615 14.1981 67.105 14.0417 66.9171 13.9166C66.6039 13.6665 66.2908 13.4163 65.9464 13.1974C65.508 12.8846 65.0696 12.5719 64.5999 12.2904C64.1615 12.009 63.7231 11.7588 63.2847 11.5086C62.815 11.2584 62.3766 10.977 61.9069 10.758C61.4685 10.5391 61.0301 10.2889 60.5604 10.1638C60.3412 10.1013 60.122 9.97621 59.9028 9.88239C59.4331 9.66348 58.9634 9.47584 58.4624 9.31947C58.118 9.19438 57.8048 9.06929 57.4917 8.94419C57.022 8.78783 56.5523 8.60019 56.0513 8.47509C55.8947 8.44382 55.7381 8.38127 55.5816 8.31873C55.425 8.25618 55.2684 8.22491 55.0806 8.16236C54.7987 8.06854 54.5169 8.00599 54.2038 7.94345C53.8593 7.84963 53.5149 7.75581 53.2017 7.66199C52.9199 7.59944 52.6381 7.5369 52.3563 7.47435C52.0745 7.4118 51.7613 7.31798 51.4795 7.25544C51.229 7.19289 50.9785 7.16162 50.728 7.13034C50.6027 7.09907 50.5088 7.09907 50.3835 7.0678C50.133 7.00525 49.9138 6.97398 49.6633 6.91143C49.5381 6.88016 49.4441 6.84888 49.3189 6.84888C49.131 6.81761 48.9431 6.78634 48.7552 6.75506C48.5673 6.72379 48.3795 6.69252 48.1916 6.66124C48.0037 6.62997 47.8158 6.5987 47.5966 6.56742C47.4087 6.53615 47.2209 6.50488 47.033 6.4736C46.8138 6.44233 46.5946 6.44233 46.3754 6.41106C46.3441 6.41106 46.3128 6.41106 46.2814 6.37978C46.1875 6.34851 46.0936 6.34851 45.9683 6.31724C45.9057 6.31724 45.8431 6.31724 45.7804 6.31724C45.5299 6.28596 45.2794 6.25469 45.0602 6.22342C44.7158 6.19214 44.4026 6.16087 44.0582 6.16087C44.0582 6.16087 44.0582 6.16087 44.0269 6.16087C43.7137 6.1296 43.4006 6.06705 43.0562 6.03578C42.6178 6.00451 42.1794 6.00451 41.741 5.97323C41.4905 5.97323 41.24 5.94196 40.9895 5.94196C40.8329 5.94196 40.7076 5.91069 40.5511 5.91069C39.0793 5.91069 37.6076 5.91069 36.1359 5.91069C36.0732 5.91069 36.0106 5.91069 35.9793 5.91069C35.3843 6.03578 34.7581 5.94196 34.1631 6.03578C33.9752 6.06705 33.756 6.03578 33.5681 6.09833C33.5368 6.1296 33.4742 6.09833 33.4116 6.09833C33.0671 6.1296 32.6914 6.1296 32.3469 6.16087C32.3156 6.16087 32.3156 6.16087 32.2843 6.16087C32.0025 6.19215 31.752 6.22342 31.4701 6.25469C31.2196 6.28596 30.9691 6.28596 30.7186 6.31724C30.6873 6.31724 30.6873 6.31724 30.656 6.31724C30.4368 6.41106 30.1863 6.37978 29.9358 6.41106C29.7166 6.44233 29.4661 6.4736 29.2469 6.50488C29.1216 6.53615 28.9651 6.53615 28.8398 6.56742C28.6519 6.5987 28.4954 6.62997 28.3075 6.66124C27.9004 6.72379 27.4933 6.78634 27.0862 6.84888C26.8044 6.88016 26.5539 6.9427 26.2721 7.00525C26.0216 7.0678 25.8024 7.09907 25.5519 7.16162C25.3327 7.22416 25.0822 7.25544 24.863 7.31798C24.769 7.34926 24.6438 7.34926 24.5499 7.38053C24.3307 7.44308 24.1115 7.50562 23.9236 7.56817C23.7357 7.59944 23.5478 7.63072 23.3286 7.69326C22.9842 7.78708 22.6397 7.8809 22.2953 7.97472C21.9195 8.09981 21.5437 8.22491 21.168 8.31873C20.8862 8.41255 20.6043 8.47509 20.3225 8.56891C19.7589 8.75655 19.1952 8.94419 18.6316 9.16311C18.4437 9.22565 18.2558 9.2882 18.0679 9.35074C17.6922 9.50711 17.3477 9.66348 16.972 9.81984C16.5962 9.97621 16.2204 10.1326 15.876 10.2889C15.5002 10.4766 15.0932 10.6642 14.7174 10.8519C14.2164 11.102 13.7154 11.3835 13.2143 11.665C13.0265 11.7588 12.8073 11.8839 12.6194 12.009C12.2749 12.2279 11.9618 12.4781 11.586 12.697C11.085 12.9784 10.678 13.3537 10.2082 13.6665C9.83249 13.9166 9.48804 14.2606 9.14359 14.5734C8.45469 15.1988 7.85973 15.8556 7.29609 16.6061C6.98295 17.044 6.66982 17.4818 6.45062 17.9822C6.26274 18.3887 6.07486 18.8265 5.91829 19.2644C5.79304 19.7022 5.6991 20.1087 5.66778 20.5466C5.63647 21.0782 5.63647 21.6099 5.6991 22.1415C5.76173 22.5481 5.82435 22.9546 5.94961 23.3299C6.13749 23.8928 6.388 24.4245 6.66982 24.9561C7.04558 25.5816 7.45266 26.1445 7.92236 26.7074C8.36075 27.2078 8.83045 27.6769 9.36278 28.1147C9.80117 28.49 10.2396 28.8653 10.7093 29.178C10.9598 29.3344 11.2103 29.5533 11.4608 29.7409C12.0871 30.1162 12.6507 30.554 13.3083 30.8668C13.7467 31.0857 14.1851 31.3359 14.6235 31.586C14.78 31.6799 14.9366 31.7424 15.0932 31.805C15.3124 31.8988 15.5002 32.0239 15.7194 32.1177C16.0952 32.274 16.471 32.4617 16.8467 32.6181C17.1599 32.7432 17.473 32.8682 17.7861 32.9933C18.2245 33.1497 18.6629 33.3061 19.1013 33.4624C19.571 33.6188 20.0407 33.8064 20.5104 33.9628C20.9175 34.0879 21.3559 34.213 21.7943 34.3068C22.0761 34.4006 22.3892 34.4945 22.671 34.557C22.9529 34.6195 23.2347 34.6821 23.4852 34.7759C23.8923 34.8697 24.2993 34.9636 24.7064 35.0574C24.9256 35.1199 25.1448 35.1512 25.3327 35.2137C25.5832 35.2763 25.8337 35.3388 26.1155 35.3701C26.3347 35.4014 26.5852 35.4639 26.8044 35.4952C27.0862 35.5265 27.3368 35.589 27.6186 35.6203C27.7438 35.6516 27.8378 35.6516 27.963 35.6828C28.1509 35.7141 28.3075 35.7767 28.4954 35.7767C28.8398 35.7767 29.1843 35.933 29.56 35.9018C29.6853 35.9018 29.8418 35.933 29.9671 35.933C30.1863 35.9643 30.4055 36.0268 30.656 36.0581C30.9691 36.0894 31.2823 36.1207 31.6267 36.1519C32.0338 36.1832 32.4722 36.2458 32.8793 36.277C33.1611 36.3083 33.4116 36.3083 33.6621 36.3396C34.0692 36.4021 34.5076 36.3708 34.9459 36.4021C35.1651 36.4021 35.4157 36.4334 35.6348 36.4334C35.7914 36.4334 35.948 36.4647 36.1045 36.4647C37.5763 36.4647 39.048 36.4647 40.5198 36.4647C40.5824 36.4647 40.645 36.4647 40.7076 36.4647C41.0208 36.4021 41.3652 36.4021 41.6784 36.4021C42.1167 36.4021 42.5551 36.3708 42.9622 36.3396C42.9935 36.3396 43.0248 36.3083 43.0562 36.3083C43.1814 36.277 43.3067 36.277 43.4319 36.2458C43.7451 36.2145 44.0895 36.2145 44.4026 36.1832C44.434 36.1832 44.4339 36.1832 44.4653 36.1832C44.7471 36.1519 44.9976 36.1207 45.2794 36.0894C45.5299 36.0581 45.7804 36.0581 46.0309 36.0268C46.0623 36.0268 46.0936 35.9956 46.1249 35.9956C46.2188 35.9956 46.2815 35.9643 46.3754 35.9643C46.5633 35.933 46.7825 35.933 47.0017 35.9018C47.1582 35.9018 47.2835 35.8705 47.44 35.8705C47.6906 35.8392 47.9411 35.7767 48.1916 35.7454C48.3168 35.7141 48.4421 35.7141 48.5673 35.6828C48.8492 35.6203 49.1623 35.5577 49.4441 35.4952C49.6633 35.4639 49.9138 35.4326 50.133 35.4014C50.3522 35.3701 50.6027 35.3388 50.8219 35.2763C51.0724 35.2137 51.2916 35.1512 51.5421 35.0886C51.8866 35.0261 52.1997 34.9948 52.5442 34.901C52.826 34.8072 53.1078 34.7759 53.3896 34.6821C53.7967 34.5883 54.1725 34.4632 54.5482 34.3381C54.9553 34.213 55.3624 34.1192 55.7695 33.9941C56.2392 33.869 56.6775 33.6813 57.1472 33.5563C57.3664 33.4937 57.617 33.3686 57.8361 33.3061C58.2432 33.181 58.6503 33.0246 59.0261 32.8682C59.5271 32.6493 60.0594 32.4617 60.5604 32.2428C61.0614 32.0239 61.5311 31.805 62.0322 31.5548C62.314 31.3984 62.5958 31.242 62.9089 31.0857C63.2847 30.8668 63.6292 30.6791 64.0049 30.4602C64.4433 30.1787 64.913 29.9286 65.3201 29.6158C65.7585 29.3031 66.1969 28.9904 66.6353 28.6464C67.0736 28.2711 67.5433 27.8958 67.9504 27.4892C68.7333 26.7074 69.4535 25.8943 70.0171 24.9248C70.2989 24.4245 70.5808 23.9241 70.706 23.3612C70.7686 23.1423 70.8313 22.9233 70.8939 22.7044C70.9878 22.3917 71.0191 22.079 71.0505 21.7662C71.1757 21.6099 71.1757 21.4222 71.1757 21.2346Z" fill="white"/>
<path d="M40.3946 19.7022C39.6431 19.7022 38.8915 19.7022 38.14 19.7022C38.1087 19.5146 38.0461 19.3582 38.0148 19.1706C37.9521 18.9204 37.8895 18.6389 37.8582 18.3888C37.7956 18.1386 37.7642 17.8884 37.7329 17.6382C37.7016 17.4193 37.639 17.2004 37.6077 17.0127C37.5764 16.8876 37.545 16.7626 37.545 16.6375C37.4824 16.356 37.4198 16.0745 37.3885 15.7931C37.3572 15.5742 37.3259 15.324 37.2632 15.1051C37.2319 14.9487 37.2006 14.8236 37.1693 14.6672C37.138 14.5422 37.138 14.4483 37.1067 14.3232H37.0753C36.9814 14.5422 36.9188 14.7611 36.8248 14.98C36.637 15.4803 36.4804 16.012 36.2925 16.5124C36.1673 16.8876 36.042 17.2317 35.9167 17.6069C35.7289 18.1698 35.5097 18.764 35.3218 19.327C35.2905 19.4208 35.2592 19.4833 35.2278 19.5771C35.1965 19.7022 35.1339 19.7335 35.04 19.7335C34.3511 19.7335 33.6935 19.7335 33.0046 19.7335C32.9733 19.7335 32.9733 19.7335 32.9106 19.7022C32.942 19.6084 32.942 19.5146 32.9733 19.4208C33.0672 19.108 33.1612 18.8266 33.2864 18.5139C33.5056 17.8884 33.7248 17.2942 33.944 16.6687C34.1319 16.1371 34.2884 15.6054 34.4763 15.0738C34.6016 14.6672 34.7581 14.2607 34.9147 13.8541C35.0087 13.5727 35.1026 13.2912 35.2278 12.9785C35.3531 12.6032 35.4784 12.2279 35.6036 11.8527C35.6975 11.6025 35.6662 11.4461 35.4784 11.2585C35.447 11.2272 35.4157 11.1959 35.3844 11.1646C35.3844 11.1334 35.4157 11.0708 35.4157 11.0395C35.4784 10.8832 35.4784 10.8832 35.6349 10.8832C36.0733 10.8832 36.543 10.8832 36.9814 10.8832C37.4511 10.8832 37.9208 10.8832 38.3905 10.8832C38.4531 10.8832 38.5471 10.8832 38.641 10.9145C38.9855 12.4156 39.236 13.948 39.5178 15.5116C39.7057 14.98 39.8936 14.4483 40.0814 13.948C40.2067 13.5727 40.3006 13.1974 40.4259 12.8534C40.5825 12.3843 40.7703 11.9152 40.9269 11.4461C40.9582 11.321 41.0209 11.1959 41.0209 11.0708C41.0522 10.9457 41.1148 10.9457 41.2087 10.9457C41.3653 10.9457 41.5532 10.9145 41.7097 10.9145C42.2108 10.9145 42.7118 10.9145 43.2128 10.9145C43.2754 10.9145 43.3694 10.9457 43.432 10.9457C42.3986 13.8541 41.3966 16.7938 40.3946 19.7022Z" fill="white"/>
<path d="M41.741 19.7335C41.7723 19.5771 41.8349 19.452 41.8662 19.3269C42.0541 18.7953 42.242 18.2636 42.4299 17.732C42.6177 17.2003 42.8056 16.7 42.9622 16.1683C43.1501 15.6367 43.3066 15.105 43.4945 14.5734C43.6511 14.1043 43.8077 13.6352 43.9955 13.1661C44.1208 12.7908 44.3087 12.4155 44.3713 12.009C44.4026 11.9152 44.4339 11.8213 44.4339 11.7275C44.4652 11.6024 44.4339 11.4773 44.34 11.3835C44.2147 11.2584 44.1834 11.1333 44.34 10.9457C44.3713 10.9457 44.4339 10.9457 44.5279 10.9457C45.6552 10.9457 46.7824 10.9457 47.9097 10.9457C48.4108 10.9457 48.9118 10.977 49.3815 11.1646C49.9764 11.3835 50.4461 11.7901 50.6966 12.4155C50.7593 12.6032 50.8219 12.7908 50.8532 13.0097C50.9158 13.2912 50.9158 13.5414 50.8845 13.7915C50.8532 14.0417 50.8532 14.2919 50.7906 14.5108C50.728 14.761 50.6966 15.0425 50.6027 15.2927C50.5401 15.5741 50.4148 15.8243 50.3522 16.0745C50.2896 16.3872 50.1643 16.7 50.0077 16.9814C49.8199 17.3567 49.632 17.732 49.4441 18.076C49.2875 18.3262 49.0683 18.5764 48.8491 18.764C48.5047 19.0767 48.1289 19.2956 47.7219 19.452C47.5027 19.5458 47.2835 19.5771 47.033 19.6396C46.0622 19.796 45.0915 19.7335 44.0895 19.7335C43.4006 19.7335 42.743 19.7335 42.0541 19.7335C41.9602 19.7335 41.8662 19.7335 41.741 19.7335ZM46.5319 13.1035C46.2814 13.8541 46.0309 14.5734 45.7804 15.3239C45.5299 16.0432 45.2481 16.7625 45.0289 17.5131C45.4047 17.5131 45.7178 17.5131 46.0622 17.5131C46.2814 17.5131 46.5006 17.4818 46.7198 17.4192C47.0643 17.3254 47.2835 17.0752 47.44 16.7938C47.5966 16.5123 47.7219 16.2309 47.8471 15.9494C47.9724 15.5428 48.1602 15.1363 48.2855 14.6985C48.3794 14.417 48.4108 14.1356 48.4734 13.8541C48.5047 13.5726 48.3794 13.3224 48.1602 13.1974C48.035 13.1348 47.8784 13.1035 47.7219 13.1035C47.3148 13.1035 46.939 13.1035 46.5319 13.1035Z" fill="white"/>
<path d="M58.6503 27.2704C58.9948 28.3024 59.4018 29.3031 59.7463 30.3039C59.5271 30.3664 57.4604 30.3664 57.2412 30.3039C56.9281 29.3344 56.6462 28.3337 56.3331 27.3642C56.0826 27.3642 55.8321 27.3642 55.5816 27.3642C55.425 27.8333 55.2371 28.3337 55.0806 28.834C54.924 29.3344 54.7361 29.8035 54.5482 30.3352C54.4856 30.3352 54.3917 30.3664 54.2977 30.3664C53.6088 30.3664 52.8886 30.3664 52.1997 30.3664C52.0432 30.3664 52.0432 30.3352 52.0745 30.2101C52.2937 29.5533 52.5442 28.9279 52.7634 28.2711C52.9826 27.6769 53.1704 27.0827 53.3896 26.4885C53.6401 25.7693 53.8907 25.05 54.1412 24.3307C54.2664 23.9867 54.3917 23.6427 54.5169 23.2674C54.6109 22.9547 54.7361 22.6419 54.8301 22.3292C54.8614 22.2041 54.7987 22.079 54.7048 21.9852C54.5796 21.7976 54.5482 21.7976 54.6109 21.5474C54.6735 21.5474 54.7361 21.5161 54.7987 21.5161C56.1765 21.5161 57.523 21.4848 58.9008 21.5161C59.4645 21.5161 59.9968 21.6725 60.4665 22.0165C60.7796 22.2354 60.9988 22.5481 61.0928 22.9234C61.1867 23.2987 61.1867 23.674 61.1554 24.018C61.1241 24.3307 60.9988 24.6434 60.9049 24.9562C60.7796 25.3314 60.6231 25.7067 60.4352 26.0194C60.0907 26.5511 59.6523 26.9576 59.0574 27.1453C58.9008 27.2078 58.7756 27.2391 58.6503 27.2704ZM56.8654 23.6427C56.7715 23.9241 56.6462 24.2056 56.5836 24.4558C56.4897 24.7372 56.3644 24.9874 56.3018 25.3002C56.8028 25.3002 57.3038 25.3314 57.8048 25.3002C58.2119 25.2689 58.4937 25.0812 58.619 24.6747C58.6503 24.5183 58.6816 24.3932 58.7443 24.2369C58.8382 23.8929 58.6816 23.674 58.3372 23.674C57.8362 23.6427 57.3665 23.6427 56.8654 23.6427Z" fill="white"/>
<path d="M22.4833 21.5161C22.546 21.5161 22.6086 21.5161 22.7025 21.5161C24.049 21.5161 25.3955 21.4848 26.742 21.5161C27.3682 21.5161 27.9945 21.7037 28.4955 22.1416C28.84 22.423 28.9965 22.8296 28.9965 23.2361C28.9965 23.5801 28.9965 23.9241 28.9652 24.2681C28.9339 24.5496 28.84 24.8311 28.7147 25.1125C28.5582 25.5191 28.3703 25.8944 28.1198 26.2384C27.9319 26.5198 27.6814 26.7387 27.3996 26.9264C27.1177 27.114 26.8046 27.1766 26.4915 27.2704C26.6167 27.6144 26.742 27.9584 26.8985 28.3024C27.0238 28.6464 27.1804 28.9591 27.2743 29.3031C27.3682 29.6471 27.5561 29.9599 27.6188 30.3352C27.5248 30.3352 27.4935 30.3664 27.4309 30.3664C26.7733 30.3664 26.0844 30.3664 25.4268 30.3664C25.3955 30.3664 25.3642 30.3664 25.3329 30.3664C25.1137 30.3352 25.1137 30.3352 25.051 30.1475C24.9258 29.7722 24.8318 29.4282 24.7066 29.053C24.6127 28.7715 24.55 28.5213 24.4874 28.2398C24.3935 27.9584 24.3308 27.6769 24.2369 27.3955C24.2369 27.3642 24.1743 27.3329 24.1429 27.3329C23.9551 27.3329 23.7359 27.3329 23.548 27.3329C23.454 27.3329 23.4227 27.3955 23.4227 27.458C23.2975 27.8958 23.1409 28.3024 23.0157 28.7402C22.8904 29.1155 22.7652 29.4908 22.6086 29.8661C22.5773 29.9599 22.5146 30.0537 22.5146 30.1788C22.4833 30.3039 22.4207 30.3352 22.2954 30.3664C22.2641 30.3664 22.2328 30.3664 22.2015 30.3664C21.5126 30.3664 20.8237 30.3664 20.1661 30.3664C19.9782 30.3664 19.9782 30.3352 20.0409 30.1475C20.2288 29.5846 20.4166 29.0217 20.6358 28.4588C20.7924 28.0522 20.9177 27.6144 21.0742 27.2078C21.1682 26.8951 21.2934 26.5824 21.3874 26.2696C21.4813 25.9882 21.6066 25.6754 21.7005 25.394C21.8884 24.8623 22.0763 24.2994 22.2641 23.7678C22.3894 23.4238 22.5146 23.0798 22.6399 22.7358C22.6712 22.6419 22.7338 22.5481 22.7338 22.4543C22.7652 22.2667 22.7965 22.0477 22.5773 21.9226C22.4833 21.8601 22.452 21.7663 22.5146 21.6725C22.4833 21.6099 22.4833 21.5786 22.4833 21.5161ZM24.7379 23.6427C24.55 24.2056 24.3621 24.7372 24.1429 25.3002C24.3308 25.3002 24.4874 25.3002 24.6753 25.3002C25.0824 25.3002 25.4581 25.3314 25.8652 25.2689C26.1157 25.2063 26.3036 25.1125 26.3975 24.8623C26.4915 24.6121 26.5854 24.3932 26.6167 24.1118C26.6167 23.8303 26.4915 23.6427 26.2096 23.6427C25.7086 23.6427 25.2389 23.6427 24.7379 23.6427Z" fill="white"/>
<path d="M37.6076 24.018C37.6389 24.5496 37.5763 25.0187 37.4511 25.4878C37.3258 25.9882 37.2005 26.4573 37.0127 26.9264C36.8561 27.3017 36.7308 27.6769 36.543 28.0522C36.2925 28.5839 35.9793 29.053 35.5409 29.4283C34.946 29.9599 34.2258 30.2414 33.4429 30.3664C32.9106 30.4603 32.3783 30.4603 31.8772 30.429C31.1884 30.3977 30.5308 30.2414 29.9671 29.8035C29.7166 29.6159 29.5287 29.3657 29.3722 29.0842C29.153 28.709 29.059 28.3024 29.0903 27.8646C29.0903 27.7395 29.0903 27.6144 29.0903 27.458C29.1217 27.2391 29.153 27.0202 29.1843 26.8013C29.2156 26.6137 29.2469 26.426 29.3095 26.2384C29.4035 25.9256 29.4661 25.5816 29.56 25.2689C29.6853 24.8936 29.8419 24.5183 29.9984 24.1431C30.2176 23.6427 30.4681 23.1736 30.8126 22.7358C31.1257 22.3605 31.5015 22.0478 31.9399 21.7976C32.253 21.6099 32.5975 21.5161 32.9419 21.4223C33.0985 21.391 33.255 21.391 33.4116 21.3597C33.5056 21.3597 33.5682 21.3285 33.6621 21.3285C34.1318 21.3285 34.6015 21.2972 35.0712 21.3285C35.2904 21.3285 35.5096 21.3597 35.7288 21.4536C36.1359 21.5787 36.543 21.735 36.8874 22.0478C37.2006 22.3292 37.4197 22.6732 37.545 23.0485C37.6076 23.4238 37.6389 23.7365 37.6076 24.018ZM32.5348 28.2711C32.7853 28.3024 33.0672 28.2399 33.3177 28.1773C33.6621 28.0835 33.9126 27.8333 34.0692 27.5519C34.1945 27.3017 34.351 27.0515 34.445 26.77C34.6328 26.2697 34.8207 25.7693 34.9773 25.2689C35.0712 24.9562 35.1339 24.6747 35.1339 24.3307C35.1339 24.1743 35.1339 24.018 35.0399 23.8929C34.9147 23.7052 34.7268 23.6427 34.5076 23.6114C34.2571 23.5802 33.9753 23.5802 33.7247 23.6114C33.3177 23.6427 32.9419 23.7991 32.6601 24.1431C32.5348 24.2994 32.4409 24.4558 32.347 24.6434C32.1278 25.05 31.9712 25.4878 31.8459 25.8944C31.7207 26.2071 31.6267 26.5198 31.5641 26.8638C31.5328 27.114 31.4702 27.3329 31.4702 27.5831C31.4702 27.7708 31.5328 27.9271 31.6581 28.0522C31.7207 28.1148 31.7833 28.146 31.8772 28.1773C32.0338 28.2711 32.253 28.2711 32.5348 28.2711Z" fill="white"/>
<path d="M28.3076 11.2272C28.4328 10.9144 28.4328 10.9144 28.7146 10.9144C29.7167 10.9144 30.75 10.9144 31.752 10.9144C31.8147 10.9144 31.846 10.9144 31.9399 10.9144C31.9712 11.1021 32.0026 11.2584 32.0339 11.4461C32.0652 11.9464 32.0652 12.4468 32.0965 12.9472C32.1278 13.3537 32.1278 13.729 32.1591 14.1356C32.1591 14.3232 32.1904 14.5109 32.1904 14.6985C32.2217 15.1676 32.1904 15.6367 32.2531 16.0745C32.3157 16.4185 32.2844 16.7313 32.3157 17.044C32.347 17.4505 32.3783 17.8884 32.4096 18.2949C32.4096 18.3262 32.4096 18.3887 32.4096 18.42C32.4096 18.7327 32.4409 19.0455 32.4409 19.3582C32.4409 19.452 32.4409 19.5771 32.4409 19.7022C32.3783 19.7022 32.347 19.7335 32.3157 19.7335C31.6268 19.7335 30.9379 19.7335 30.249 19.7335C30.0611 19.7335 30.0298 19.7335 30.0298 19.5146C30.0298 19.0455 30.0298 18.5451 30.0298 18.076C30.0298 18.0135 30.0298 17.9196 30.0298 17.8258C29.1843 17.8258 28.3389 17.8258 27.4621 17.8258C27.4308 17.8884 27.3681 17.9509 27.3368 18.0135C27.0237 18.5451 26.7419 19.0768 26.4287 19.6397C26.3974 19.7335 26.3348 19.7335 26.2409 19.7335C25.458 19.7335 24.6752 19.7335 23.8923 19.7335C23.861 19.7335 23.8297 19.7335 23.7671 19.7022C23.7984 19.5458 23.8923 19.4208 23.955 19.2644C24.2055 18.8578 24.4247 18.4513 24.6752 18.0447C24.8944 17.7007 25.1136 17.3567 25.3328 16.9814C25.458 16.7938 25.552 16.5749 25.6772 16.3873C25.8964 16.0432 26.0843 15.6992 26.3035 15.3552C26.6166 14.8236 26.9298 14.2919 27.2429 13.7603C27.4621 13.4163 27.6813 13.041 27.9005 12.697C28.0884 12.3843 28.2762 12.0715 28.4328 11.7275C28.5894 11.5399 28.5581 11.3523 28.3076 11.2272ZM29.9359 13.5101H29.9045C29.4348 14.3232 28.9965 15.1363 28.5267 15.9494C29.0278 15.9494 29.4975 15.9494 29.9985 15.9494C29.9672 15.1363 29.9672 14.3232 29.9359 13.5101Z" fill="white"/>
<path d="M53.7341 21.5161C53.7654 21.735 53.6715 21.8913 53.6089 22.079C53.4523 22.5168 53.2957 22.9546 53.1078 23.3925C53.1078 23.4237 53.1078 23.455 53.0765 23.455C53.0139 23.6426 53.0139 23.6426 52.826 23.6426C52.4816 23.6426 52.1371 23.6426 51.824 23.6426C51.1351 23.6426 50.4149 23.6426 49.6947 23.6426C49.5694 24.0492 49.4442 24.4557 49.2876 24.8936C49.3815 24.8936 49.4442 24.8936 49.5068 24.8936C50.3523 24.8936 51.1664 24.8936 52.0119 24.8936C52.0432 24.8936 52.1058 24.8936 52.1371 24.8936C52.325 24.8936 52.325 24.9248 52.2624 25.0812C52.1371 25.4565 51.9806 25.8318 51.8553 26.2383C51.7927 26.3947 51.73 26.5823 51.6674 26.7387C51.6361 26.8012 51.5735 26.8638 51.4795 26.8638C51.4169 26.8638 51.3856 26.8638 51.323 26.8638C50.4775 26.8638 49.6633 26.8638 48.8179 26.8638C48.7553 26.8638 48.6613 26.8638 48.5674 26.8638C48.4108 27.3016 48.2542 27.7394 48.0977 28.2085C49.225 28.2085 50.3522 28.2085 51.4795 28.2085C51.4482 28.3336 51.4482 28.4587 51.3856 28.5525C51.229 29.0216 51.0725 29.4595 50.9159 29.9286C50.9159 29.9598 50.8846 30.0224 50.8846 30.0537C50.7593 30.3351 50.7593 30.3351 50.4462 30.3351C48.6926 30.3351 46.9391 30.3351 45.1855 30.3351C45.0916 30.3351 44.9976 30.3351 44.8411 30.3038C44.8724 30.1475 44.9037 30.0224 44.9663 29.8973C45.0289 29.6784 45.1229 29.4282 45.2168 29.2093C45.3421 28.8653 45.4673 28.5213 45.5926 28.146C45.7492 27.6769 45.937 27.2391 46.0623 26.77C46.1249 26.5198 46.2502 26.2696 46.3441 26.0194C46.4694 25.6441 46.5946 25.2689 46.7199 24.9248C46.9391 24.2681 47.1896 23.5801 47.4088 22.9234C47.4714 22.7044 47.5653 22.4855 47.5967 22.2353C47.5967 22.1728 47.534 22.079 47.5027 21.9852C47.4714 21.9539 47.4401 21.9226 47.3775 21.8601C47.3461 21.8288 47.3148 21.7975 47.3148 21.7662C47.3148 21.6724 47.3461 21.5786 47.4088 21.4848C47.4401 21.4535 47.5027 21.4222 47.5653 21.4222C48.129 21.4222 48.6926 21.4222 49.225 21.4222C50.6341 21.4222 52.0745 21.4222 53.4836 21.4222C53.5775 21.5161 53.6402 21.5161 53.7341 21.5161Z" fill="white"/>
<path d="M38.923 30.3352C38.8917 30.2726 38.8916 30.1788 38.8603 30.1163C38.829 29.4908 38.829 28.8653 38.7977 28.2399C38.7977 27.9584 38.7351 27.7082 38.7351 27.4268C38.7038 26.9264 38.7038 26.426 38.6725 25.9256C38.6411 25.4565 38.6725 25.0187 38.6098 24.5496C38.5472 24.1118 38.5472 23.674 38.5472 23.2674C38.5472 22.986 38.5159 22.7358 38.4846 22.4543C38.4533 22.2667 38.3906 22.079 38.2028 21.9539C38.1714 21.9539 38.1714 21.9227 38.1401 21.9227C38.0775 21.8601 37.9522 21.8601 38.0149 21.735C38.0775 21.5787 38.1088 21.5161 38.2654 21.5161C39.0795 21.5161 39.8937 21.5161 40.7392 21.5161C40.7705 21.5161 40.8331 21.5161 40.8957 21.5474C40.8957 21.6099 40.8957 21.6725 40.8957 21.735C40.8957 22.767 40.8957 23.8303 40.9583 24.8624C40.9897 25.6129 40.9897 26.3635 41.021 27.114C41.021 27.3017 41.0523 27.4893 41.0836 27.7082C41.4907 27.0202 41.8038 26.3322 42.1483 25.6442C42.4927 24.9562 42.8372 24.2682 43.2129 23.5801C43.5574 22.8921 43.9331 22.2041 44.2776 21.5161C45.123 21.5161 45.9372 21.5161 46.7827 21.5161C46.814 21.5161 46.814 21.5474 46.8453 21.5474C46.7514 21.735 46.6574 21.9227 46.5322 22.1103C46.2816 22.5481 46.0311 23.0172 45.7806 23.4551C45.6241 23.7678 45.4362 24.0492 45.2796 24.3307C45.0604 24.7373 44.8412 25.1438 44.622 25.5191C44.2776 26.1446 43.9018 26.8013 43.5574 27.4268C43.1816 28.1148 42.8372 28.7715 42.4614 29.4595C42.3361 29.7097 42.1796 29.9286 42.0543 30.1788C41.9917 30.3039 41.8977 30.3352 41.7725 30.3352C41.1149 30.3352 40.4573 30.3352 39.7997 30.3352C39.5805 30.3352 39.33 30.3352 39.1108 30.3352C39.0169 30.3352 38.9856 30.3352 38.923 30.3352Z" fill="white"/>
<path d="M19.6337 11.1959C19.6963 10.9144 19.6963 10.9144 20.0094 10.9144C20.7923 10.9144 21.6064 10.9144 22.3893 10.9144C22.5145 10.9144 22.6085 10.9144 22.7337 10.9144C22.8277 11.0395 22.7024 11.1646 22.6711 11.2584C22.5145 11.7901 22.3266 12.3217 22.1388 12.8534C22.0135 13.2599 21.8569 13.6665 21.7004 14.073C21.4812 14.6985 21.262 15.3552 21.0428 15.9807C20.8862 16.4811 20.6983 16.9502 20.5105 17.4193C20.5105 17.4505 20.5105 17.4818 20.4791 17.5131C21.6377 17.5131 22.765 17.5131 23.9236 17.5131C23.8923 17.6695 23.861 17.8258 23.7984 17.9509C23.6105 18.4513 23.4226 18.9829 23.2661 19.4833C23.2034 19.7022 23.2034 19.7022 22.9842 19.7022C21.3246 19.7022 19.6337 19.7022 17.9741 19.7022C17.7236 19.7022 17.4417 19.7022 17.1599 19.7022C17.1912 19.5458 17.2225 19.3895 17.2852 19.2331C17.4417 18.764 17.6296 18.2949 17.7862 17.8258C17.8488 17.6069 17.9114 17.388 17.9741 17.1691C18.0993 16.7938 18.2246 16.4185 18.3811 16.0432C18.5064 15.668 18.6316 15.2927 18.7569 14.9174C18.9135 14.4483 19.07 14.0105 19.2266 13.5727C19.3519 13.1974 19.4771 12.7908 19.6337 12.3843C19.6963 12.1654 19.7903 11.9777 19.8529 11.7588C19.8842 11.6024 19.8842 11.4461 19.7589 11.321C19.7276 11.321 19.6963 11.2584 19.6337 11.1959Z" fill="white"/>
<path d="M19.5084 24.9248C19.3831 25.2375 19.2892 25.519 19.1952 25.8317C19.0387 26.2383 18.9134 26.6448 18.7568 27.0514C18.7568 27.0826 18.6942 27.1452 18.6316 27.1452C18.6003 27.1765 18.5377 27.1452 18.475 27.1452C16.6588 27.1452 14.874 27.1452 13.0578 27.1452C12.9952 27.1452 12.9325 27.1452 12.8699 27.1452C12.8073 27.0514 12.8386 26.9888 12.8699 26.895C13.0891 26.3321 13.3083 25.7379 13.5275 25.175C13.5588 25.0812 13.5901 25.0186 13.6214 24.9248C13.6527 24.831 13.6841 24.7997 13.778 24.7684C14.2164 24.6433 14.6235 24.487 15.0618 24.3306C15.4376 24.2055 15.7821 24.0804 16.1578 23.9866C16.6902 23.8302 17.2225 23.6426 17.7548 23.4862C18.1306 23.3611 18.475 23.236 18.8195 23.1109C19.2579 22.9546 19.6963 22.8295 20.1346 22.6731C20.166 22.6731 20.2286 22.6731 20.2912 22.6418C20.2912 22.7044 20.2912 22.7357 20.2912 22.7982C20.2286 22.9859 20.1346 23.1735 20.0407 23.3924C20.0094 23.455 19.9781 23.5175 19.8841 23.5488C19.2892 23.7364 18.6942 23.9553 18.0993 24.143C17.6609 24.2993 17.1912 24.4557 16.7528 24.6121C16.5023 24.7059 16.2518 24.7684 16.0013 24.831C15.9386 24.831 15.9073 24.8622 15.8447 24.9248C17.0659 24.9248 18.2558 24.9248 19.5084 24.9248Z" fill="white"/>
<path d="M55.9888 16.2309C54.7989 16.2309 53.609 16.2309 52.3565 16.2309C52.3878 16.1371 52.3878 16.0433 52.4191 15.9807C52.5756 15.5116 52.7322 15.0425 52.9201 14.5734C52.9827 14.4171 53.014 14.292 53.0767 14.1356C53.108 14.0418 53.1706 14.0105 53.2645 14.0105C53.2959 14.0105 53.3585 14.0105 53.3898 14.0105C55.1747 14.0105 56.9595 14.0105 58.7444 14.0105C58.8384 14.0105 58.901 14.0105 58.9949 14.0105C58.9949 14.1043 58.9949 14.1669 58.9636 14.2294C58.7757 14.6985 58.6192 15.1989 58.4313 15.668C58.3687 15.8243 58.306 16.012 58.2434 16.1684C58.2121 16.2622 58.1495 16.3247 58.0555 16.356C57.7737 16.4498 57.4606 16.5749 57.1787 16.6687C56.8656 16.7625 56.5525 16.8876 56.2393 16.9815C55.5817 17.2004 54.9242 17.388 54.2666 17.6069C53.9221 17.7007 53.609 17.8258 53.2645 17.9197C52.9514 18.0135 52.607 18.1386 52.2938 18.2324C52.0433 18.3262 51.7928 18.3888 51.511 18.4826C51.511 18.42 51.511 18.3575 51.511 18.3262C51.5736 18.1386 51.6362 17.9509 51.7302 17.7946C51.7615 17.6695 51.8554 17.6069 51.9807 17.5757C52.513 17.4193 53.014 17.2316 53.5464 17.044C54.2666 16.7938 55.0181 16.5436 55.7383 16.2934C55.8009 16.2934 55.8949 16.2622 55.9888 16.2309Z" fill="white"/>
</svg>
