<svg width="63" height="41" viewBox="0 0 63 41" fill="none" xmlns="http://www.w3.org/2000/svg">
<path d="M31.2515 40.1599C30.0253 40.1599 28.9648 40.1095 27.7386 40.0423C26.6782 39.9751 25.6342 39.7902 24.5737 39.639C23.2481 39.4374 21.9059 39.2693 20.5969 38.9333C18.9067 38.4964 17.2497 37.9587 15.5927 37.4042C13.3391 36.648 11.2347 35.5726 9.26285 34.2619C8.08636 33.4722 6.94302 32.5984 5.89909 31.6406C4.88831 30.7165 3.97695 29.6747 3.14844 28.5824C2.3365 27.507 1.7234 26.2972 1.24286 25.0201C0.662903 23.4406 0.397779 21.8107 0.46406 20.1472C0.546911 17.946 1.16001 15.8792 2.30336 13.9804C3.19815 12.4513 4.27521 11.0902 5.55112 9.86359C6.62818 8.82178 7.82124 7.93121 9.08058 7.10785C10.7045 6.03244 12.4112 5.10826 14.2173 4.35211C16.9349 3.20949 19.7352 2.36932 22.6516 1.89883C24.1098 1.66359 25.5845 1.47875 27.0593 1.31072C27.9044 1.2099 28.766 1.17629 29.6277 1.14268C30.5059 1.09227 31.3841 1.02506 32.2623 1.07547C33.6874 1.14268 35.129 1.2435 36.554 1.41154C38.0619 1.57957 39.5864 1.81481 41.0777 2.08367C42.9833 2.43654 44.8391 2.99104 46.6618 3.62957C49.3462 4.57055 51.8815 5.8308 54.2344 7.44391C55.6429 8.4017 56.952 9.47711 58.0953 10.7374C60.0174 12.821 61.4756 15.1902 62.1053 17.9964C62.4201 19.4415 62.4698 20.9201 62.2379 22.4156C61.9727 24.1632 61.3928 25.7931 60.5311 27.2886C59.4541 29.1706 58.0456 30.7669 56.4051 32.1615C54.947 33.4218 53.3562 34.514 51.6826 35.4214C49.7605 36.4464 47.7886 37.3538 45.7008 37.9587C44.5077 38.3115 43.3147 38.6812 42.105 38.9501C40.7297 39.2525 39.3378 39.5046 37.9293 39.7062C36.7031 39.8742 35.4769 39.9583 34.2507 40.0591C33.3228 40.1263 32.3949 40.1431 31.4504 40.1935C31.4338 40.1431 31.2515 40.2103 31.2515 40.1599ZM35.3278 36.1607C35.5764 36.1607 35.7752 36.1775 35.9575 36.1607C36.7528 36.0599 37.5482 35.9759 38.327 35.8078C39.6195 35.539 40.912 35.3038 42.1713 34.9173C43.4969 34.514 44.7894 34.0267 46.0819 33.489C48.5343 32.4808 50.7713 31.1029 52.7265 29.2714C54.1019 27.9943 55.2286 26.5156 55.9743 24.7681C56.7531 22.9533 56.952 21.0546 56.604 19.1054C56.3057 17.4419 55.6263 15.9464 54.599 14.6357C53.9196 13.7619 53.1408 12.9554 52.3289 12.048C51.8152 13.4595 51.0695 14.5013 50.0422 15.3583C49.0977 16.1312 48.12 16.8369 46.9933 17.341C45.8333 17.8451 44.6734 18.3492 43.4804 18.7525C42.337 19.1222 41.1605 19.4079 39.984 19.6431C39.6195 19.7103 39.5698 19.8111 39.5698 20.1472C39.5864 21.2226 39.5698 22.298 39.5366 23.3734C39.5201 24.0119 39.4869 24.6673 39.3709 25.289C39.0893 26.8181 38.8241 28.3304 38.4596 29.8427C37.979 31.7415 37.25 33.5562 36.0735 35.1357C35.8415 35.455 35.6095 35.7742 35.3278 36.1607ZM27.4901 36.2111C27.4072 36.0263 27.3907 35.9423 27.3244 35.8751C26.1148 34.514 25.3691 32.9009 24.7726 31.2038C24.1926 29.5402 23.7452 27.8263 23.5961 26.0619C23.4635 24.5665 23.3144 23.071 23.1984 21.5923C23.1653 21.0714 23.1984 20.5505 23.1818 20.0464C23.1818 19.9288 23.0824 19.7439 22.983 19.7103C22.6847 19.6095 22.3699 19.6095 22.0882 19.5255C20.7957 19.1726 19.4701 18.8701 18.2273 18.3997C17.0177 17.946 15.8578 17.3747 14.731 16.7697C13.3391 15.9968 12.1129 15.039 11.2678 13.6611C10.9862 13.2074 10.7542 12.7033 10.4559 12.1488C9.77653 12.8882 9.08058 13.5771 8.46748 14.3333C7.175 15.9464 6.31335 17.7947 6.11451 19.8951C5.89909 22.1636 6.3962 24.2808 7.58926 26.2132C8.76574 28.1456 10.3399 29.7251 12.1958 30.9685C13.3723 31.7583 14.6316 32.464 15.8909 33.1025C17.4651 33.9091 19.1387 34.514 20.8454 34.9509C22.2373 35.3206 23.6458 35.6062 25.0543 35.8751C25.8165 36.0431 26.6119 36.1103 27.4901 36.2111ZM35.0295 5.20908C35.3775 5.61236 35.6758 5.91481 35.9243 6.26768C36.8854 7.64555 37.6476 9.14104 38.1447 10.7542C38.4927 11.8968 38.7578 13.0394 39.0561 14.1988C39.1887 14.7197 39.1887 14.7365 39.7189 14.6021C40.5309 14.4005 41.3594 14.1988 42.1713 13.9804C43.6792 13.5771 45.1208 13.0058 46.3304 11.9808C47.4738 11.0062 47.6561 9.76277 46.463 8.65375C45.8168 8.04883 45.0711 7.61195 44.2757 7.29268C43.1158 6.82219 41.9228 6.40211 40.7131 6.09965C39.4372 5.78039 38.1282 5.62916 36.8357 5.42752C36.2557 5.3099 35.6924 5.27629 35.0295 5.20908ZM27.8049 5.22588C26.877 5.3099 25.9988 5.3267 25.1537 5.49473C23.6789 5.78039 22.2042 6.13326 20.746 6.50293C19.2216 6.8726 17.7965 7.51113 16.5537 8.50252C15.5264 9.32588 15.2116 10.3341 15.9738 11.4263C16.4378 12.0816 17.1006 12.5689 17.8297 12.8882C18.8073 13.3251 19.8015 13.7115 20.8123 14.0476C21.7402 14.3501 22.7013 14.5517 23.6789 14.8038C24.3583 11.2583 25.3194 7.93121 27.8049 5.22588ZM27.5729 20.3656C27.5729 21.189 27.5067 22.0796 27.5895 22.9533C27.7055 24.0624 27.9044 25.1714 28.1695 26.2636C28.5175 27.7759 29.0146 29.2378 30.1745 30.3468C30.6384 30.7837 31.1687 31.0189 31.8315 30.8173C32.3783 30.6492 32.8091 30.2796 33.1405 29.8427C34.0022 28.6833 34.4496 27.3222 34.7479 25.9275C34.9633 24.9025 35.1124 23.8607 35.245 22.8021C35.3444 21.9788 35.3444 21.1554 35.3775 20.3656C32.7097 20.3656 30.1248 20.3656 27.5729 20.3656ZM34.8638 15.207C34.8638 15.1398 34.8804 15.1062 34.8638 15.0558C34.5821 13.4259 34.1348 11.8464 33.0908 10.5357C32.1629 9.37629 31.003 9.14104 29.8928 10.3677C28.6666 11.7288 28.2855 13.4427 27.9044 15.207C30.2739 15.4255 32.5606 15.4255 34.8638 15.207Z" fill="white"/>
</svg>
