<svg width="53" height="53" viewBox="0 0 53 53" fill="none" xmlns="http://www.w3.org/2000/svg">
<path d="M51.0205 26.5069C51.0483 39.9124 39.98 50.9132 26.2908 50.7888C12.9084 50.6782 1.93762 39.8571 1.99338 26.3687C2.04914 12.9356 13.1593 1.99008 26.8903 2.18356C40.2309 2.39086 51.0344 13.1982 51.0205 26.5069ZM26.5 3.78669C13.8285 3.78669 3.5686 13.9583 3.59648 26.576C3.62436 39.1384 13.9679 49.3515 26.7788 49.1995C39.2969 49.0613 49.4174 38.9588 49.4174 26.4654C49.4174 13.9583 39.1436 3.78669 26.5 3.78669Z" fill="white"/>
<path d="M41.0395 26.5069C41.0255 34.5087 34.5155 40.9212 26.4164 40.8936C18.4148 40.8659 11.863 34.3705 11.9605 26.2996C12.0581 18.3945 18.5681 12.0372 26.5697 12.0787C34.5713 12.1202 41.0534 18.5741 41.0395 26.5069ZM26.5 26.493C26.5697 26.493 26.6255 26.5069 26.6952 26.5069C31.142 26.5069 35.5889 26.5069 40.0358 26.5069C40.0915 26.5069 40.1612 26.493 40.2449 26.493C40.1473 22.3747 38.5999 18.9335 35.4774 16.2247C32.9264 14.0135 29.9153 12.9355 26.5 12.8941C26.5 17.4547 26.5 21.9739 26.5 26.493C26.4303 26.5069 26.3606 26.5069 26.2909 26.5069C21.8859 26.5069 17.4947 26.5069 13.0897 26.5069C12.9921 26.5069 12.8945 26.5069 12.7551 26.5069C12.8248 30.2659 14.1491 33.4998 16.8117 36.1394C19.4742 38.7653 22.7083 40.0643 26.4861 40.1196C26.4861 40.0091 26.4861 39.9261 26.4861 39.857C26.4861 39.1108 26.4861 38.3645 26.4861 37.6182C26.5 33.9006 26.5 30.1968 26.5 26.493Z" fill="white"/>
<path d="M13.062 17.9799C11.654 16.6532 10.2461 15.3403 8.82422 13.9859C9.31212 13.4055 9.77214 12.8112 10.2879 12.2722C10.8873 11.6227 11.5007 11.0008 12.128 10.3927C12.588 9.96426 13.1456 9.74314 13.8008 9.90898C14.5257 10.0886 14.9718 10.7796 14.8742 11.5121C14.8603 11.5536 14.8603 11.6089 14.8603 11.6503C15.0833 11.6227 15.2785 11.5812 15.4876 11.5674C16.5609 11.5536 17.2998 12.5624 16.9234 13.5575C16.7979 13.903 16.5888 14.2347 16.3379 14.5111C15.2924 15.6581 14.2051 16.7914 13.1317 17.9246C13.1038 17.9384 13.0899 17.9523 13.062 17.9799ZM13.1317 16.0866C13.1735 16.0589 13.2014 16.0313 13.2153 16.0175C13.9402 15.2574 14.6512 14.4972 15.3621 13.7233C15.4597 13.6128 15.5433 13.4884 15.613 13.364C15.7385 13.1291 15.7106 12.9079 15.5433 12.7421C15.376 12.5763 15.1112 12.5486 14.8881 12.673C14.7487 12.7559 14.6372 12.8527 14.5257 12.9632C14.0238 13.4746 13.5359 13.9859 13.048 14.4972C12.7971 14.7598 12.5462 15.0224 12.2953 15.285C12.588 15.5614 12.8529 15.824 13.1317 16.0866ZM11.4449 14.4972C11.5007 14.442 11.5565 14.4005 11.5983 14.359C12.2116 13.7095 12.8389 13.06 13.4523 12.4104C13.5638 12.286 13.6753 12.1478 13.7729 12.0096C13.9542 11.7194 13.9123 11.4154 13.6893 11.2357C13.4802 11.056 13.2153 11.0699 12.9505 11.291C12.7135 11.4983 12.4765 11.7056 12.2674 11.9405C11.7237 12.521 11.1801 13.1291 10.6225 13.7233C10.9013 13.9859 11.1661 14.2347 11.4449 14.4972Z" fill="white"/>
<path d="M26.5001 8.45787C26.9462 7.35226 27.3922 6.2743 27.8244 5.19633C27.8662 5.07195 27.9498 5.05813 28.0614 5.07195C28.6329 5.11341 29.2044 5.16869 29.776 5.19633C29.9433 5.21015 29.9293 5.30689 29.9293 5.41745C29.9572 6.26048 29.9851 7.1035 30.0269 7.94652C30.0687 9.01067 30.0966 10.0748 30.1384 11.1666C29.6505 11.0975 29.1766 11.0422 28.6747 10.9731C28.6329 9.61875 28.5771 8.27821 28.5353 6.93766C28.5214 6.93766 28.5074 6.93766 28.4935 6.92384C28.2983 7.33844 28.1171 7.75304 27.922 8.18147C27.685 8.70663 27.4341 9.24561 27.211 9.77077C27.1553 9.89515 27.0995 9.96426 26.9462 9.95044C26.6534 9.93662 26.3607 9.93662 26.0679 9.95044C25.9285 9.95044 25.8728 9.90898 25.817 9.7846C25.4127 8.85865 24.9945 7.94652 24.5763 7.02058C24.5624 6.99294 24.5485 6.95148 24.4927 6.92384C24.4509 8.26439 24.3951 9.60493 24.3533 10.9593C23.8654 11.0284 23.3914 11.0837 22.9175 11.1528C22.9175 10.9317 22.9175 10.7244 22.9175 10.5171C22.9732 8.81719 23.0429 7.13114 23.0987 5.43127C23.0987 5.23779 23.1684 5.16869 23.3775 5.15487C23.8933 5.12723 24.423 5.08577 24.9388 5.03049C25.1061 5.01667 25.1758 5.07195 25.2315 5.22397C25.6358 6.31576 26.0679 7.36608 26.5001 8.45787Z" fill="white"/>
<path d="M39.8826 13.1981C39.1298 13.5851 38.377 13.9721 37.6243 14.359C37.4291 14.4558 37.234 14.5663 37.0249 14.6631C36.9691 14.6907 36.8576 14.6907 36.8158 14.6492C36.4254 14.3314 36.0351 13.9997 35.6309 13.6542C36.6764 12.0234 37.7219 10.3927 38.7813 8.73425C39.1856 9.05211 39.5619 9.35616 39.9523 9.67402C39.2413 10.752 38.5304 11.8023 37.8055 12.8941C38.3073 12.6453 38.7674 12.4242 39.2274 12.1893C39.6595 11.9682 40.1056 11.7608 40.5377 11.5397C40.6493 11.4844 40.719 11.4844 40.8165 11.5812C41.0675 11.8438 41.3184 12.0925 41.5833 12.3275C41.6669 12.4104 41.6808 12.4795 41.6251 12.5762C41.2069 13.3916 40.7887 14.207 40.3844 15.0362C40.3565 15.0915 40.3286 15.1468 40.3286 15.2435C41.3741 14.5525 42.4336 13.8753 43.507 13.1705C43.8276 13.5575 44.1343 13.9306 44.4549 14.3314C42.7821 15.3817 41.1372 16.4182 39.4922 17.4547C39.1437 17.0539 38.7952 16.6532 38.4746 16.2524C38.4328 16.2109 38.4467 16.0865 38.4746 16.0313C38.9346 15.1468 39.3947 14.2485 39.8547 13.364C39.8826 13.3087 39.8965 13.2672 39.9244 13.212C39.9104 13.212 39.8965 13.212 39.8826 13.1981Z" fill="white"/>
</svg>
