<svg width="47" height="43" viewBox="0 0 47 43" fill="none" xmlns="http://www.w3.org/2000/svg">
<path d="M46.6881 21.37C46.6881 33.2486 36.1301 42.7516 23.3314 42.74C10.5073 42.7284 0 33.2023 0 21.37C0 9.53769 10.52 0 23.3567 0C36.1427 0.0115889 46.6881 9.50292 46.6881 21.37ZM42.3459 31.661C42.2572 31.6262 42.1813 31.5914 42.0927 31.5682C35.9022 29.2736 29.7117 26.9674 23.5213 24.6728C23.3947 24.6265 23.2934 24.6265 23.1541 24.6728C20.9767 25.5072 18.7866 26.3301 16.6092 27.1529C12.6215 28.6594 8.62109 30.1776 4.63336 31.6841C4.5574 31.7073 4.48145 31.7421 4.40549 31.7768C7.78556 37.1193 14.9888 42.0215 24.5087 41.5927C32.0664 41.2566 38.8645 37.2932 42.3459 31.661ZM23.6732 1.22843C23.6732 1.28637 23.6858 1.30955 23.6858 1.33273C23.8124 2.13236 23.9264 2.932 24.053 3.73164C24.1669 4.48492 24.2935 5.2382 24.4074 5.99148C24.534 6.77953 24.648 7.56757 24.7745 8.34403C24.9138 9.2132 25.0404 10.0824 25.1796 10.9515C25.3062 11.728 25.4202 12.5045 25.5468 13.2925C25.6734 14.069 25.7873 14.8454 25.9139 15.6335C26.0405 16.4099 26.1544 17.1864 26.281 17.9744C26.3696 18.5423 26.4583 19.1101 26.5469 19.678C26.5595 19.736 26.6102 19.8055 26.6481 19.8518C26.6988 19.8982 26.7621 19.933 26.8127 19.9793C28.4205 21.115 30.0282 22.2507 31.636 23.3981C35.2692 25.9708 38.9025 28.5435 42.5231 31.1163C42.5737 31.151 42.6244 31.1742 42.675 31.209C46.245 25.3913 46.6374 17.5109 42.1053 10.8357C39.8646 7.53281 36.839 5.0296 33.0285 3.31443C30.0789 1.95853 26.9646 1.28637 23.6732 1.22843ZM23.0782 1.24002C16.8244 1.21684 7.76024 4.22996 3.29146 13.0375C2.55721 14.4746 2.03817 15.9811 1.70903 17.5341C1.36722 19.0986 1.24063 20.6747 1.31658 22.2739C1.39254 23.8616 1.65839 25.4145 2.13945 26.9443C2.59519 28.4045 3.79784 30.9888 4.16496 31.2901C4.19028 31.2785 4.2156 31.2669 4.22826 31.2438C5.05112 30.6411 5.86133 30.0385 6.68419 29.4243C9.46927 27.3731 12.2417 25.3102 15.0268 23.259C16.6725 22.0421 18.3056 20.8253 19.9513 19.6201C20.0273 19.5621 20.0905 19.4926 20.1032 19.3999C20.1159 19.2724 20.1538 19.1449 20.1665 19.0174C20.3564 17.8585 20.5463 16.6881 20.7362 15.5292C20.9134 14.4514 21.0906 13.3736 21.2805 12.2959C21.4704 11.137 21.6603 9.96648 21.8502 8.80759C22.0274 7.72982 22.2047 6.65205 22.3946 5.57428C22.5971 4.38062 22.787 3.19855 22.9769 2.00489C23.0022 1.73834 23.0402 1.49497 23.0782 1.24002Z" fill="white"/>
</svg>
