<svg width="49" height="49" viewBox="0 0 49 49" fill="none" xmlns="http://www.w3.org/2000/svg">
<path d="M25.7455 48.1766C25.1277 48.1766 24.5299 48.1967 23.9122 48.1967C23.8724 48.1967 23.8524 48.1967 23.8126 48.1967C23.6332 48.1967 23.4738 48.1766 23.2945 48.1766C23.2546 48.1766 23.2347 48.1766 23.1948 48.1766C23.1351 48.1766 23.0753 48.1766 23.0354 48.1565C23.0155 48.1565 22.9956 48.1565 22.9757 48.1364C22.9159 48.1364 22.8561 48.1364 22.8162 48.1364C22.7963 48.1364 22.7565 48.1364 22.7365 48.1364C22.7166 48.1364 22.6767 48.1364 22.6568 48.1364C22.6369 48.1364 22.617 48.1364 22.597 48.1364C22.5373 48.1364 22.4775 48.1164 22.4376 48.1164C22.4177 48.1164 22.3978 48.1164 22.3778 48.1164C22.3579 48.1164 22.3181 48.1164 22.2981 48.1164C22.2184 48.1164 22.1387 48.0963 22.0789 48.0963C21.6007 48.0762 21.1424 47.9758 20.6841 47.9156C18.7113 47.5942 16.8183 47.0119 14.985 46.1885C13.3909 45.4655 11.8964 44.5819 10.5015 43.5176C9.20623 42.5336 8.01062 41.4291 6.9545 40.184C5.99802 39.0795 5.16109 37.9147 4.4238 36.6697C3.24812 34.6815 2.39127 32.5729 1.85324 30.3237C1.73368 29.8217 1.61412 29.2996 1.51449 28.7774C1.45471 28.4561 1.41485 28.1147 1.375 27.7733C1.25544 26.8897 1.19566 26.0061 1.17573 25.1225C1.15581 24.2389 1.19566 23.3553 1.27537 22.4918C1.31522 22.1504 1.31522 21.7889 1.375 21.4475C1.45471 20.9254 1.55434 20.4033 1.65398 19.9012C2.07244 17.8328 2.74995 15.8647 3.70644 13.9971C4.50351 12.4307 5.45999 10.9848 6.57589 9.61924C7.7715 8.17334 9.1066 6.90818 10.5812 5.78359C12.255 4.51842 14.0484 3.51433 16.0013 2.75121C17.436 2.18892 18.9106 1.76719 20.4051 1.48605C20.8833 1.40572 21.3616 1.34547 21.8398 1.30531C22.4177 1.24506 23.0155 1.18482 23.5934 1.14465C23.6532 1.14465 23.693 1.14465 23.7528 1.14465C23.7727 1.14465 23.7727 1.14465 23.7927 1.14465C24.2709 1.14465 24.7491 1.14465 25.2473 1.14465C25.2672 1.14465 25.2672 1.14465 25.2872 1.14465C25.4665 1.14465 25.6259 1.16474 25.8053 1.16474C25.8252 1.16474 25.8451 1.16474 25.865 1.16474C25.9447 1.16474 26.0444 1.16474 26.1241 1.16474C26.1639 1.16474 26.2038 1.16474 26.2636 1.18482C26.3234 1.18482 26.3831 1.2049 26.4429 1.2049C26.4628 1.2049 26.4828 1.2049 26.5027 1.2049C26.9809 1.26515 27.4592 1.34547 27.9175 1.38564C28.6747 1.44588 29.3921 1.62662 30.1294 1.78728C31.6637 2.14875 33.1383 2.69096 34.5531 3.37375C36.7251 4.41801 38.6979 5.74342 40.4515 7.39014C42.4043 9.2176 44.0184 11.3262 45.2737 13.716C46.1904 15.4631 46.8679 17.2906 47.3262 19.1983C47.4657 19.8209 47.5853 20.4434 47.6849 21.066C47.7646 21.5078 47.7646 21.9697 47.8244 22.4115C47.9639 23.4156 47.9639 24.4397 47.9439 25.4438C47.9439 25.8856 47.9041 26.3074 47.8642 26.7492C47.8244 27.1106 47.7845 27.4922 47.7447 27.8537C47.665 28.3959 47.5853 28.918 47.4856 29.4602C47.1668 31.1069 46.6487 32.6733 45.9911 34.2196C45.2737 35.8262 44.397 37.3524 43.3608 38.7582C42.3445 40.1438 41.1688 41.3889 39.8736 42.5336C38.3791 43.8389 36.7251 44.9434 34.9517 45.827C33.2778 46.6504 31.5442 47.2729 29.7308 47.6946C29.2924 47.7951 28.8541 47.8955 28.3957 47.9557C27.8577 48.036 27.3396 48.0762 26.8016 48.1364C26.6223 48.1565 26.4429 48.1766 26.2636 48.1766C26.2237 48.1766 26.1639 48.1766 26.1241 48.1766C26.0444 48.1766 25.9846 48.1967 25.9049 48.1967C25.8053 48.1766 25.7853 48.1766 25.7455 48.1766ZM26.2038 43.9192C26.2436 43.9192 26.2835 43.9192 26.3034 43.8992C26.3433 43.8992 26.3632 43.8992 26.4031 43.8992C27.2001 43.8389 27.9972 43.6983 28.7743 43.5176C29.1131 43.4373 29.4718 43.3369 29.8105 43.2565C29.7308 42.9352 24.6296 30.7053 24.51 30.5647C22.7565 34.7819 21.0029 38.9992 19.2294 43.2565C19.6678 43.377 20.0863 43.4975 20.5047 43.5778C20.983 43.6582 21.4612 43.7987 21.9594 43.8188C22.3579 43.859 22.7565 43.9393 23.155 43.9393C23.1948 43.9393 23.2148 43.9393 23.2546 43.9393C23.5535 43.9594 23.8724 43.9795 24.1713 43.9996C24.3905 44.0598 24.6096 44.0598 24.8288 43.9996C25.1676 43.9795 25.5064 43.9594 25.8252 43.9594C25.8451 43.9594 25.865 43.9594 25.885 43.9594C25.9647 43.9594 26.0643 43.9393 26.144 43.9393C26.1639 43.9393 26.1839 43.9393 26.2038 43.9192ZM25.0879 5.30162C24.6694 5.30162 24.251 5.30162 23.8126 5.30162C23.7927 5.30162 23.7727 5.30162 23.7727 5.30162C23.693 5.30162 23.5934 5.3217 23.5137 5.3217C23.4738 5.3217 23.4539 5.3217 23.414 5.3217C23.3144 5.3217 23.2148 5.3217 23.1151 5.3217C23.0753 5.3217 23.0554 5.3217 23.0155 5.3217C22.617 5.36187 22.2384 5.40203 21.8398 5.46228C20.9033 5.60285 19.9667 5.80367 19.0501 6.08482C18.9504 6.1049 18.8508 6.14506 18.7312 6.18523C19.3689 7.67129 20.0066 9.15736 20.6641 10.6233C21.3018 12.1094 21.9594 13.5754 22.597 15.0615C23.2347 16.5274 23.8724 17.9934 24.5299 19.4996C26.4628 15.0213 28.3957 10.6033 30.3087 6.16514C28.7744 5.6631 27.2201 5.40203 25.6458 5.30162C25.6259 5.30162 25.606 5.30162 25.606 5.30162C25.5064 5.30162 25.4067 5.30162 25.327 5.30162C25.3071 5.30162 25.2872 5.28154 25.2672 5.28154C25.2473 5.28154 25.2075 5.28154 25.1875 5.28154C25.1477 5.30162 25.1277 5.30162 25.0879 5.30162ZM21.7203 25.3233C21.7402 25.3233 21.7601 25.3233 21.78 25.3233C22.6768 25.3233 23.5735 25.3233 24.4702 25.3233C25.4067 25.3233 26.3433 25.3233 27.2998 25.3233C27.3197 25.3233 27.3396 25.3233 27.3595 25.3233C27.3994 25.3836 27.4393 25.4237 27.4592 25.484C27.7979 26.2873 28.1367 27.0905 28.4754 27.8938C29.2725 29.7615 30.0497 31.6291 30.8467 33.4967C30.9663 33.7578 31.0659 34.0188 31.1855 34.3C31.2253 34.2197 31.2652 34.1594 31.2851 34.1192C31.9228 32.7135 32.5804 31.3078 33.218 29.902C34.314 27.5123 35.41 25.1024 36.5059 22.7127C37.2632 21.0459 38.0204 19.3791 38.7776 17.7324C39.3356 16.5074 39.8736 15.3024 40.4515 14.0975C40.5112 13.9569 40.5112 13.8565 40.4116 13.716C39.9533 13.0533 39.475 12.4307 38.937 11.8283C37.7215 10.4627 36.3665 9.29793 34.8321 8.31391C34.7922 8.29383 34.7524 8.27375 34.6926 8.23359C34.593 8.47457 34.4734 8.69547 34.3738 8.91637C33.5369 10.7438 32.7199 12.5713 31.8829 14.3787C30.6674 17.0295 29.4718 19.6602 28.2563 22.311C27.9773 22.9336 27.6983 23.536 27.3994 24.1586C25.5661 24.1586 23.7129 24.1586 21.8797 24.1586C21.8199 24.1586 21.78 24.1586 21.7203 24.1586C21.4811 23.6565 21.2619 23.1545 21.0228 22.6524C20.0663 20.5438 19.0899 18.4151 18.1334 16.3065C17.6552 15.2623 17.177 14.218 16.6987 13.1737C15.9614 11.5672 15.2441 9.96064 14.5068 8.37416C14.4868 8.334 14.447 8.27375 14.4271 8.23359C12.0358 9.67949 10.1029 11.5672 8.56858 13.8766C11.6772 20.6844 14.7857 27.4721 17.8943 34.3C17.9342 34.2197 17.9541 34.1795 17.974 34.1393C18.2929 33.3762 18.6117 32.6332 18.9305 31.8701C19.7475 29.9422 20.5645 27.9942 21.3815 26.0664C21.4811 25.8254 21.6007 25.5643 21.7203 25.3233ZM32.7398 42.0918C33.2977 42.0717 35.9879 40.3246 37.3229 39.0996C38.6979 37.8746 39.8736 36.4688 40.8301 34.9024C41.8065 33.336 42.5438 31.6492 43.0419 29.8619C43.5401 28.0946 43.7593 26.2672 43.7394 24.4196C43.7394 22.8131 43.2412 19.6803 42.8825 19.0176C42.8626 19.0176 42.8626 19.0377 42.8427 19.0377C39.475 26.709 36.1074 34.4004 32.7398 42.0918ZM16.2802 42.152C16.3002 42.1319 16.3201 42.1319 16.34 42.1119C16.2802 41.9512 16.2005 41.7906 16.1408 41.6299C15.2241 39.5414 14.3075 37.4528 13.3909 35.3643C12.7532 33.8983 12.0956 32.4123 11.458 30.9463C10.7007 29.1992 9.9236 27.4721 9.16638 25.725C8.56858 24.3795 7.9907 23.034 7.39289 21.6885C7.03421 20.8651 6.67553 20.0418 6.29692 19.2184C6.25707 19.1582 6.25707 19.0578 6.13751 19.0176C4.82234 23.6967 5.04153 28.2553 7.05414 32.6934C8.98704 36.9508 12.1155 40.0836 16.2802 42.152Z" fill="white"/>
<path d="M26.2237 1.16474C26.1839 1.16474 26.144 1.16474 26.0842 1.14465C26.144 1.14465 26.1839 1.14465 26.2237 1.16474Z" fill="white"/>
<path d="M22.3779 48.0963C22.3979 48.0963 22.4178 48.0963 22.4377 48.0963C22.4178 48.1164 22.3979 48.1164 22.3779 48.0963Z" fill="white"/>
<path d="M26.4629 1.18483C26.4429 1.18483 26.423 1.18483 26.4031 1.18483C26.423 1.16475 26.4429 1.18483 26.4629 1.18483Z" fill="white"/>
<path d="M27.3796 24.1385C27.3198 24.1586 27.2799 24.1787 27.2202 24.1787C25.4268 24.1787 23.6333 24.1787 21.8599 24.1787C21.8001 24.1787 21.7602 24.1385 21.7004 24.1385C21.7602 24.1385 21.8001 24.1385 21.8599 24.1385C23.6931 24.1385 25.5264 24.1385 27.3796 24.1385Z" fill="white"/>
<path d="M24.1711 43.9995C24.3903 43.9995 24.6095 43.9995 24.8287 43.9995C24.6095 44.0598 24.3903 44.0598 24.1711 43.9995Z" fill="white"/>
<path d="M23.5337 5.32166C23.4939 5.32166 23.4739 5.32166 23.4341 5.32166C23.454 5.34174 23.4939 5.32166 23.5337 5.32166Z" fill="white"/>
<path d="M25.3271 5.32172C25.3072 5.32172 25.2873 5.30164 25.2673 5.30164C25.2873 5.32172 25.3072 5.32172 25.3271 5.32172Z" fill="white"/>
<path d="M21.7202 25.3234C21.7401 25.3234 21.7601 25.3234 21.78 25.3234C21.7601 25.3033 21.7401 25.3234 21.7202 25.3234Z" fill="white"/>
</svg>
