<svg width="84" height="32" viewBox="0 0 84 32" fill="none" xmlns="http://www.w3.org/2000/svg">
<path d="M2.3418 16.7548C2.3418 16.3721 2.3418 15.9894 2.3418 15.6067C2.36389 15.5004 2.38598 15.4153 2.38598 15.309C2.43017 14.6499 2.51855 14.012 2.6732 13.3741C2.96042 12.0984 3.42438 10.9077 4.08719 9.75949C5.12559 7.95219 6.51749 6.46381 8.26289 5.25185C10.5827 3.67843 13.1677 2.82793 15.9957 2.72162C16.5701 2.70036 17.1445 2.72162 17.719 2.76415C18.3155 2.80667 18.912 2.89172 19.4865 2.99803C20.4365 3.18939 21.3644 3.46581 22.2703 3.84853C23.1982 4.25252 24.0819 4.72029 24.8994 5.29438C24.9436 5.31564 24.9878 5.35817 25.032 5.37943C27.5727 3.61464 30.4007 2.70036 33.5159 2.70036C36.6532 2.70036 39.4812 3.61464 41.9999 5.37943C44.5406 3.61464 47.3686 2.70036 50.4838 2.70036C53.6211 2.70036 56.427 3.63591 58.9678 5.37943C59.012 5.3369 59.0783 5.31564 59.1224 5.27312C60.0504 4.63524 61.0446 4.10368 62.083 3.69969C63.6295 3.08308 65.2424 2.76415 66.8994 2.70036C67.4738 2.6791 68.0483 2.70036 68.6227 2.74288C69.2192 2.78541 69.7937 2.87046 70.3681 2.97677C71.4949 3.21066 72.5775 3.55086 73.6379 4.03989C75.3392 4.8266 76.8194 5.88973 78.0567 7.25052C79.1614 8.44122 80.023 9.75949 80.6416 11.2479C81.2603 12.715 81.5917 14.2459 81.6138 15.8406C81.6138 16.2445 81.6138 16.6485 81.5917 17.0313C81.5475 17.7542 81.437 18.4771 81.2603 19.1788C80.6858 21.4751 79.5591 23.5163 77.902 25.2386C76.3555 26.8545 74.4996 28.0239 72.3786 28.7894C71.4065 29.1296 70.4123 29.3847 69.396 29.4911C68.932 29.5548 68.468 29.5974 68.0041 29.6186C67.3192 29.6399 66.6122 29.6186 65.9273 29.5548C65.3307 29.4911 64.7342 29.406 64.1377 29.2572C62.3481 28.8532 60.6911 28.1303 59.1887 27.0884C59.1003 27.0246 59.0341 26.9821 58.9457 26.9183C56.4049 28.6831 53.5769 29.5974 50.4396 29.5974C47.3023 29.5974 44.4744 28.7043 41.9557 26.9183C39.4149 28.6831 36.609 29.5974 33.4717 29.5974C30.3344 29.5974 27.5064 28.6618 24.9657 26.9183C24.8994 26.9608 24.8331 27.0033 24.7668 27.0459C23.6842 27.7901 22.5354 28.3641 21.276 28.8107C20.3481 29.1296 19.376 29.3635 18.4039 29.4911C17.9399 29.5548 17.498 29.5974 17.0341 29.6186C16.1282 29.6612 15.2224 29.5974 14.3165 29.4698C13.5875 29.3635 12.8584 29.2146 12.1514 28.9808C10.4943 28.4917 8.9257 27.6837 7.51171 26.5781C5.83259 25.2598 4.52907 23.6651 3.62323 21.7728C3.18135 20.8372 2.84995 19.8592 2.62901 18.8598C2.49645 18.2645 2.40808 17.6691 2.38598 17.0738C2.38598 16.9462 2.3418 16.8612 2.3418 16.7548ZM22.8005 25.0047C20.5249 22.4532 19.3318 19.5402 19.3318 16.1808C19.3318 12.8213 20.5249 9.88707 22.8005 7.35684C22.7784 7.33557 22.7563 7.33557 22.7563 7.31431C21.1656 6.31498 19.4423 5.74089 17.5422 5.57079C16.9236 5.52827 16.305 5.52827 15.7084 5.57079C15.2003 5.61332 14.67 5.6771 14.1619 5.78341C12.3944 6.14488 10.8037 6.8678 9.41176 7.97345C8.2408 8.88773 7.29077 9.99338 6.58377 11.2691C5.92097 12.4811 5.50119 13.7781 5.36862 15.1389C5.28025 15.8831 5.30234 16.6273 5.39072 17.3715C5.47909 18.1582 5.65584 18.9024 5.94306 19.6465C6.4954 21.1136 7.33496 22.4107 8.46173 23.5376C9.36757 24.4306 10.4281 25.1748 11.599 25.7276C12.9467 26.3655 14.3828 26.7269 15.8852 26.812C16.5922 26.8545 17.2771 26.8333 17.9841 26.7482C18.4922 26.6844 19.0004 26.5994 19.4865 26.4718C20.4144 26.2379 21.2981 25.8764 22.1377 25.4299C22.3586 25.2811 22.5796 25.1535 22.8005 25.0047ZM61.2213 25.0047C61.3539 25.0897 61.4644 25.1535 61.5748 25.2173C63.1656 26.1741 64.911 26.6844 66.7889 26.7907C67.4517 26.8333 68.1366 26.812 68.7994 26.7482C69.3739 26.6844 69.9483 26.5781 70.5007 26.4293C72.953 25.7701 74.9636 24.4519 76.488 22.517C77.8357 20.816 78.5869 18.8598 78.6974 16.7336C78.7637 15.7342 78.6753 14.7562 78.4323 13.7781C77.7695 11.2053 76.3334 9.16415 74.124 7.61199C72.9972 6.82527 71.7379 6.25119 70.3902 5.91099C69.639 5.71963 68.8878 5.59205 68.1366 5.57079C67.5401 5.54953 66.9436 5.54953 66.3471 5.61331C65.861 5.65584 65.397 5.74089 64.911 5.8472C63.7179 6.12361 62.5911 6.57013 61.5306 7.18674C61.4202 7.25052 61.3097 7.31431 61.1992 7.3781C63.5191 9.88707 64.7342 12.8213 64.7342 16.1808C64.7342 19.5402 63.497 22.4744 61.2213 25.0047ZM39.7905 25.0047C39.7463 24.9622 39.7242 24.9196 39.7021 24.8984C39.2161 24.3668 38.7742 23.7927 38.3765 23.1974C37.0509 21.1774 36.366 18.9661 36.2997 16.5847C36.2776 15.6705 36.3439 14.7774 36.5206 13.8844C36.7858 12.5024 37.2497 11.2053 37.9346 9.99338C38.4207 9.12162 38.9951 8.29239 39.68 7.5482C39.7242 7.50567 39.7684 7.44189 39.8126 7.39936C39.7684 7.3781 39.7463 7.35684 39.7242 7.33557C39.1277 6.95285 38.5091 6.65518 37.8684 6.37876C36.6974 5.91099 35.4602 5.65584 34.2008 5.59205C33.6043 5.57079 33.0078 5.57079 32.3891 5.63458C31.9031 5.6771 31.4391 5.76215 30.9751 5.86846C29.6716 6.16614 28.4565 6.67644 27.3297 7.35684C27.3076 7.3781 27.2855 7.39936 27.2634 7.39936C29.5391 9.95086 30.7321 12.8638 30.7321 16.2233C30.7321 19.5615 29.5391 22.4957 27.2634 25.0259C31.1519 27.4499 35.9904 27.4073 39.7905 25.0047ZM56.7584 25.0047C56.7363 24.9834 56.7142 24.9409 56.6921 24.9196C56.5596 24.7708 56.427 24.622 56.2945 24.4731C54.3944 22.198 53.3781 19.604 53.2676 16.6698C53.2234 15.5429 53.3339 14.416 53.599 13.3103C53.9525 11.822 54.5491 10.4612 55.3886 9.16415C55.7642 8.59006 56.184 8.03724 56.6479 7.52694C56.6921 7.48441 56.7363 7.42062 56.7805 7.3781C52.9583 4.86913 47.8547 5.01797 44.2534 7.3781C44.2755 7.42062 44.3197 7.44189 44.3418 7.48441C44.5185 7.69704 44.7174 7.90966 44.8941 8.12229C46.6174 10.2698 47.5675 12.715 47.7442 15.4153C47.8105 16.4146 47.7442 17.4352 47.5675 18.4346C47.3244 19.7528 46.8826 21.0073 46.2639 22.198C45.7558 23.1761 45.1151 24.0691 44.3639 24.8984C44.3197 24.9409 44.2976 24.9834 44.2534 25.0259C48.2966 27.5774 53.2676 27.2798 56.7584 25.0047ZM25.032 23.1336C26.7553 21.1987 27.7495 18.9661 27.7716 16.3934C27.7937 13.6718 26.8657 11.3117 25.032 9.2492C21.4307 13.0764 21.276 19.0937 25.032 23.1336ZM58.9899 23.1123C62.7679 19.115 62.569 12.9701 58.9899 9.2492C55.2119 13.3528 55.4549 19.3276 58.9899 23.1123ZM41.9999 23.1123C45.8 19.0512 45.5349 12.9489 41.9999 9.2492C38.3986 13.1615 38.2881 19.0937 41.9999 23.1123Z" fill="white"/>
</svg>
