<svg width="25" height="25" viewBox="0 0 25 25" fill="none" xmlns="http://www.w3.org/2000/svg">
<path fill-rule="evenodd" clip-rule="evenodd" d="M12.5 25C19.4036 25 25 19.4036 25 12.5C25 5.59644 19.4036 0 12.5 0C5.59644 0 0 5.59644 0 12.5C0 19.4036 5.59644 25 12.5 25ZM10.208 18.2297C10.512 18.2297 10.651 18.0945 10.8189 17.931L10.833 17.9172L12.334 16.4577L15.4574 18.7652C16.0322 19.0824 16.4471 18.9182 16.5903 18.2315L18.6408 8.56872C18.8507 7.72704 18.3199 7.34529 17.77 7.59495L5.7294 12.2378C4.90751 12.5674 4.9123 13.026 5.57958 13.2303L8.66948 14.1947L15.8229 9.68165C16.1606 9.47687 16.4706 9.58696 16.2162 9.81273L10.4199 15.0435L10.4206 15.044L10.208 18.2297Z" fill="#039BE5"/>
</svg>
