<svg width="102" height="77" viewBox="0 0 102 77" fill="none" xmlns="http://www.w3.org/2000/svg">
<path d="M42.1003 68.3172C42.6829 67.6363 43.017 67.1716 43.4248 66.7823C47.0917 63.2752 50.7465 59.7544 54.4733 56.3125C55.0302 55.798 55.9486 55.4224 56.7026 55.4155C62.0709 55.371 67.4409 55.4258 72.8093 55.4773C74.8346 55.4961 75.0299 55.4104 75.0556 53.4073C75.1259 48.1184 75.1242 42.8294 75.1722 37.5405C75.1859 35.9765 75.3058 34.4124 75.3144 32.8484C75.3178 32.3425 75.1225 31.8366 75.0179 31.3306C74.5502 31.569 73.9967 31.7165 73.63 32.0629C70.066 35.4311 66.5397 38.8387 62.991 42.2241C54.242 50.5708 45.4759 58.9021 36.7491 67.2728C35.8581 68.1285 34.95 68.5196 33.7145 68.5093C28.8962 68.4681 24.0762 68.5127 19.2562 68.5058C18.7045 68.5058 18.1527 68.3789 17.2651 68.2709C17.7843 67.7135 18.0379 67.4014 18.3309 67.1304C28.377 57.8799 38.4352 48.6397 48.4744 39.3824C52.7941 35.3985 57.0641 31.3598 61.3838 27.3777C66.0445 23.0817 70.6623 18.7343 75.448 14.5806C78.3678 12.0459 81.9438 11.1884 85.7803 11.8384C88.844 12.3563 90.8968 14.3234 92.3652 16.9267C92.6736 17.4738 92.6856 18.2369 92.6891 18.9006C92.7456 34.7691 92.7799 50.6377 92.8279 66.5062C92.8313 67.5815 92.7388 68.3635 91.2909 68.3652C75.4789 68.3858 59.6669 68.4595 43.8549 68.5075C43.382 68.5058 42.9056 68.4064 42.1003 68.3172Z" fill="white"/>
<path d="M50.2409 30.9036C49.6738 31.545 49.3602 31.9703 48.9781 32.3219C45.9898 35.0641 42.9587 37.7617 40.0063 40.5434C39.0108 41.4815 37.957 41.9051 36.5999 41.8862C32.796 41.8365 28.9904 41.8639 25.1865 41.8656C23.67 41.8656 23.5312 42.056 23.5552 43.5446C23.6135 47.098 23.6854 50.6531 23.6135 54.2031C23.5981 54.9405 23.1628 55.8477 22.6231 56.3691C18.7318 60.1282 14.7719 63.8137 10.8121 67.5009C10.4711 67.8181 9.98446 67.9793 9.56466 68.2126C9.44643 67.7461 9.22539 67.2796 9.22368 66.8132C9.20312 51.159 9.20654 35.5049 9.2014 19.8524C9.2014 17.9488 9.1757 16.0452 9.16713 14.1416C9.16028 12.4472 9.39674 12.1968 11.0331 12.1968C21.7286 12.1968 32.4242 12.2037 43.1197 12.202C51.0257 12.2003 58.93 12.1831 66.836 12.19C67.8589 12.19 68.8802 12.2929 70.2904 12.37C69.6975 13.0835 69.4302 13.4968 69.0789 13.8175C65.616 16.985 62.1239 20.1182 58.6798 23.3046C57.8077 24.1107 56.8772 24.4108 55.7035 24.4005C45.4312 24.3096 35.1589 24.2684 24.8866 24.1895C23.8294 24.181 23.437 24.6423 23.4867 25.649C23.5415 26.7894 23.6083 27.9333 23.5621 29.072C23.5124 30.2468 24.023 30.6258 25.147 30.6189C31.1065 30.5863 37.0677 30.5966 43.0272 30.5983C44.7184 30.5983 46.4096 30.5932 48.0991 30.6326C48.7057 30.6447 49.3105 30.7801 50.2409 30.9036Z" fill="white"/>
</svg>
