<svg width="462" height="108" viewBox="0 0 462 108" fill="none" xmlns="http://www.w3.org/2000/svg">
<path d="M236.992 65.4131C237.535 64.7301 237.869 64.2567 238.264 63.8298C240.523 61.4238 242.812 59.041 245.055 56.6194C245.738 55.8821 246.522 55.626 247.485 55.626C255.153 55.6415 262.82 55.6493 270.496 55.6493C272.398 55.6493 274.291 55.5872 276.193 55.6182C277.636 55.6415 277.931 55.9364 277.931 57.3878C277.923 63.5349 277.877 69.6897 277.861 75.8367C277.854 77.5054 277.931 79.1741 277.939 80.8506C277.947 82.4494 277.784 82.6435 276.193 82.6435C269.169 82.6512 262.145 82.6357 255.121 82.6279C251.062 82.6202 246.996 82.7133 242.937 82.5891C236.332 82.3796 230.139 80.7419 224.543 77.0552C216.316 71.63 211.838 61.4781 213.926 52.4205C215.626 45.0394 220.119 39.7694 226.778 36.3311C232.048 33.6069 237.713 32.5513 243.612 32.5513C273.306 32.5513 302.999 32.5358 332.685 32.5436C355.961 32.5513 379.236 32.5824 402.512 32.5979C406.423 32.5979 410.335 32.5746 414.246 32.5901C414.751 32.5901 415.263 32.7531 415.768 32.8462C415.535 33.2886 415.364 33.7776 415.069 34.1734C412.609 37.4022 410.079 40.5844 407.68 43.8597C406.842 45.0006 405.934 45.443 404.545 45.4353C388.976 45.3964 373.408 45.4042 357.839 45.4042C319.981 45.3964 282.13 45.4042 244.272 45.3809C241.578 45.3809 238.955 45.6759 236.472 46.7236C231.474 48.8192 228.338 52.7853 228.734 59.3359C229.029 64.1791 232.203 68.2072 237.093 69.5655C239.266 70.1709 241.563 70.5667 243.814 70.6288C249.619 70.7918 255.432 70.6986 261.237 70.7452C262.192 70.753 262.657 70.427 262.626 69.4335C262.603 68.5254 262.595 67.6096 262.657 66.7015C262.727 65.7469 262.316 65.4054 261.4 65.4131C259.087 65.4442 256.767 65.4286 254.454 65.4442C249.177 65.4752 243.899 65.514 238.621 65.5373C238.164 65.5373 237.737 65.4752 236.992 65.4131Z" fill="white"/>
<path d="M65.7287 83.1091C66.2487 82.496 66.5513 82.0846 66.9161 81.7353C70.2068 78.592 73.4897 75.4331 76.8347 72.344C77.3314 71.8861 78.1619 71.5446 78.8371 71.5368C83.6567 71.498 88.4763 71.5446 93.3037 71.5912C95.1198 71.6067 95.2983 71.5291 95.3216 69.7362C95.3836 64.994 95.3836 60.244 95.4302 55.5018C95.4457 54.097 95.5466 52.6922 95.5544 51.2951C95.5544 50.8449 95.3836 50.387 95.2905 49.9368C94.8714 50.1542 94.3747 50.2861 94.041 50.5966C90.8434 53.6158 87.6769 56.6738 84.4871 59.7162C76.6329 67.1905 68.7632 74.6647 60.9246 82.17C60.1252 82.9384 59.3103 83.2876 58.2004 83.2799C53.8698 83.2411 49.5469 83.2799 45.2162 83.2799C44.7195 83.2799 44.2228 83.1634 43.4312 83.0703C43.8968 82.5736 44.1219 82.2864 44.3858 82.0458C53.4041 73.7489 62.438 65.4597 71.4486 57.155C75.3291 53.5847 79.163 49.9601 83.0436 46.3821C87.2268 42.5247 91.3789 38.6285 95.6708 34.903C98.294 32.6289 101.507 31.8605 104.945 32.4426C107.693 32.9083 109.54 34.6702 110.859 37.0063C111.139 37.4953 111.146 38.1783 111.146 38.7759C111.201 53.0104 111.232 67.2526 111.271 81.487C111.271 82.4494 111.193 83.1557 109.889 83.1557C95.6941 83.1712 81.4914 83.2411 67.2964 83.2876C66.8773 83.2799 66.4582 83.1945 65.7287 83.1091Z" fill="white"/>
<path d="M73.0395 49.5411C72.5272 50.1154 72.2478 50.4957 71.9063 50.8139C69.221 53.2743 66.5047 55.6959 63.8504 58.1873C62.9579 59.0255 62.011 59.4058 60.7925 59.3903C57.3777 59.3437 53.9628 59.367 50.5479 59.3748C49.1897 59.3748 49.0578 59.5455 49.0811 60.8805C49.1354 64.0704 49.1975 67.2604 49.1354 70.4426C49.1199 71.1023 48.7318 71.9172 48.2429 72.3829C44.7504 75.7514 41.1959 79.0655 37.6413 82.3718C37.3386 82.659 36.8962 82.7987 36.5237 83.0083C36.4151 82.5892 36.221 82.17 36.221 81.7509C36.2055 67.7105 36.2055 53.6624 36.1977 39.622C36.1977 37.9145 36.1745 36.207 36.1667 34.4995C36.1589 32.9782 36.3762 32.7531 37.8431 32.7531C47.4435 32.7531 57.0517 32.7609 66.6521 32.7609C73.7535 32.7609 80.8471 32.7454 87.9484 32.7531C88.8643 32.7531 89.7878 32.8463 91.0529 32.9161C90.5251 33.5603 90.2768 33.9251 89.9663 34.2123C86.8541 37.053 83.7187 39.8626 80.6298 42.7266C79.8459 43.4484 79.0155 43.72 77.96 43.7123C68.7398 43.6269 59.5119 43.5958 50.2918 43.526C49.345 43.5182 48.988 43.9296 49.0345 44.8377C49.0811 45.8622 49.1432 46.8867 49.1044 47.9112C49.0578 48.9667 49.5157 49.3082 50.5246 49.3005C55.8798 49.2694 61.2271 49.285 66.5823 49.285C68.1034 49.285 69.6168 49.2772 71.138 49.316C71.6658 49.3082 72.2013 49.4324 73.0395 49.5411Z" fill="white"/>
<path d="M326.12 81.813C320.734 81.813 315.34 81.7819 309.953 81.8285C308.471 81.844 307.346 81.4404 306.438 80.1986C305.305 78.6385 304.055 77.1406 302.743 75.728C302.317 75.2701 301.541 74.9286 300.912 74.9131C297.419 74.8199 293.927 74.8743 290.434 74.8199C289.433 74.8044 289.053 75.177 289.107 76.1549C289.193 77.5908 289.2 79.0421 289.278 80.478C289.332 81.4327 288.96 81.9061 287.982 81.8983C286.08 81.8906 284.187 81.9061 282.285 81.9061C281.455 81.9061 281.036 81.518 281.044 80.6487C281.075 77.0086 281.09 73.3608 281.09 69.7129C281.09 68.9213 281.424 68.4866 282.223 68.4711C283.131 68.4478 284.047 68.4478 284.955 68.4478C291.102 68.4556 297.256 68.4789 303.403 68.4478C304.49 68.4401 305.607 68.3081 306.655 68.0132C308.06 67.6173 308.836 66.5463 308.844 65.4053C308.844 64.2178 307.905 62.976 306.546 62.6035C305.716 62.3784 304.823 62.293 303.962 62.293C297.055 62.3085 290.147 62.3629 283.24 62.4094C282.937 62.4094 282.549 62.5026 282.355 62.3473C282.122 62.1688 281.866 61.6255 281.959 61.5013C283.356 59.6541 284.761 57.8147 286.275 56.0684C286.577 55.7191 287.315 55.6182 287.85 55.6182C293.585 55.6104 299.313 55.6027 305.048 55.6803C308.184 55.7191 311.133 56.4564 313.702 58.3813C316.519 60.4924 317.295 63.3719 316.737 66.6705C316.232 69.6353 314.509 71.6688 311.63 72.6855C310.217 73.1823 310.132 73.5626 311.319 74.4474C311.832 74.8277 312.53 75.1614 313.151 75.1614C322.984 75.2002 332.818 75.2158 342.643 75.1459C346.322 75.1149 348.666 73.0503 349.457 69.4646C349.651 68.5798 349.822 67.6717 349.884 66.7713C349.938 65.9254 350.319 65.4674 351.126 65.4597C352.942 65.4364 354.766 65.4597 356.582 65.4985C357.459 65.5218 357.878 65.9952 357.785 66.9033C357.35 71.2652 356.287 75.4486 352.849 78.429C351.359 79.7251 349.387 80.6565 347.478 81.2076C345.507 81.7741 343.349 81.813 341.277 81.8518C336.232 81.9371 331.18 81.875 326.135 81.875C326.12 81.8595 326.12 81.8362 326.12 81.813Z" fill="white"/>
<path d="M352.243 55.6803C357.824 55.6803 362.651 55.5173 368.231 55.5173C370.311 55.5173 370.42 55.6338 370.412 57.6905C370.397 61.7886 370.381 65.8866 370.389 69.9924C370.397 73.4617 371.219 74.6803 374.587 75.2546C378.22 75.8833 381.906 76.1161 385.546 75.1149C387.913 74.4629 388.922 73.1435 388.938 70.6366C388.961 66.2358 388.922 61.8274 388.914 57.4266C388.914 55.7579 389.085 55.5717 390.715 55.5717C392.384 55.5717 394.052 55.595 395.721 55.6415C396.481 55.6648 397.032 55.9675 397.017 56.8756C396.955 61.8118 397.056 66.7481 396.807 71.6688C396.567 76.5042 393.68 79.795 388.992 81.1688C385.794 82.1002 382.512 82.4727 379.205 82.2476C376.605 82.0691 373.967 81.8596 371.444 81.2309C365.266 79.6864 362.348 75.9221 362.379 70.0933C362.387 67.9666 362.387 65.84 362.434 63.7134C362.457 62.6734 362.022 62.3241 361.006 62.3319C352.437 62.3551 343.861 62.3241 335.293 62.3396C331.382 62.3474 328.153 65.4209 327.944 69.3326C327.75 72.9417 327.641 72.2587 324.785 72.2975C323.535 72.313 322.278 72.2742 321.028 72.2975C320.128 72.313 319.655 71.9405 319.717 71.0169C320.144 65.0949 322.425 58.9401 329.053 56.7281C330.893 56.115 332.918 55.8356 334.866 55.789C340.392 55.6648 345.848 55.7269 351.382 55.7269C351.405 55.7269 351.498 55.7347 351.522 55.7269C351.646 55.6803 352.135 55.7114 352.243 55.6803Z" fill="white"/>
<path d="M402.077 62.2232C402.628 61.4315 402.985 60.8727 403.389 60.3527C404.343 59.1264 405.352 57.9389 406.291 56.6971C406.842 55.9675 407.525 55.6182 408.426 55.6182C414.045 55.6337 419.664 55.5328 425.275 55.7114C428.977 55.8278 432.415 56.9609 434.774 60.0966C438.119 64.5516 436.482 71.0479 431.468 73.4617C429.388 74.4629 427.192 74.9907 424.871 74.9907C420.238 74.9829 415.612 74.9907 410.979 74.9597C409.978 74.9519 409.613 75.3555 409.675 76.3257C409.768 77.7305 409.784 79.1353 409.854 80.5323C409.892 81.4327 409.497 81.8906 408.589 81.8906C406.687 81.8906 404.793 81.9061 402.892 81.8983C402.062 81.8983 401.642 81.4792 401.65 80.6255C401.666 76.9776 401.681 73.3375 401.658 69.6897C401.65 68.6419 402.248 68.3935 403.109 68.4013C405.5 68.4168 407.89 68.4323 410.281 68.4478C414.681 68.4711 419.089 68.5099 423.49 68.5099C424.32 68.5099 425.166 68.4478 425.981 68.3004C427.518 68.0132 428.426 66.9576 428.511 65.4907C428.589 64.1635 427.758 62.9295 426.268 62.588C425.143 62.3318 423.94 62.3086 422.768 62.3086C416.466 62.3241 410.164 62.3784 403.862 62.4095C403.365 62.4095 402.869 62.3086 402.077 62.2232Z" fill="white"/>
<path d="M175.889 59.786C182.982 59.786 190.084 59.7783 197.177 59.786C204.24 59.8016 208.71 63.5037 210.107 70.458C210.798 73.8807 210.782 73.8963 207.305 73.904C206.584 73.904 205.862 73.9118 205.14 73.8885C203.697 73.8419 203.611 73.6479 203.402 72.2353C203.208 70.9469 203.021 69.5654 202.424 68.4478C201.236 66.228 199.102 65.4751 196.665 65.4751C190.402 65.4907 184.139 65.5062 177.883 65.5062C174.166 65.5062 170.448 65.4674 166.723 65.4441C165.365 65.4363 165.241 65.6071 165.264 66.942C165.341 71.7231 165.372 76.5041 165.442 81.2851C165.458 82.201 165.054 82.5968 164.146 82.5891C162.78 82.5813 161.414 82.6434 160.048 82.6279C158.574 82.6123 158.341 82.3562 158.349 80.8738C158.38 76.2402 158.419 71.6144 158.457 66.9809C158.465 65.5916 158.364 65.4596 156.998 65.4674C154.569 65.4674 152.14 65.514 149.711 65.5062C149.284 65.5062 148.857 65.351 148.422 65.2656C148.601 64.8309 148.702 64.342 148.966 63.9772C149.718 62.9294 150.58 61.967 151.309 60.9037C151.961 59.949 152.792 59.6386 153.917 59.6619C157.596 59.7317 161.282 59.7162 164.961 59.7239C168.601 59.7317 172.249 59.7239 175.889 59.7239C175.889 59.7472 175.889 59.7705 175.889 59.786Z" fill="white"/>
<path d="M209.75 55.9286C208.897 55.9286 208.043 55.9286 207.189 55.9286C206.545 55.9286 205.901 55.9364 205.257 55.9286C200.049 55.851 201.826 56.309 198.318 52.4283C197.682 51.7297 197.177 50.8993 196.487 50.2551C196.114 49.9058 195.493 49.6652 194.981 49.6574C191.946 49.6109 188.912 49.6652 185.87 49.6497C184.814 49.6419 184.48 50.1154 184.566 51.1399C184.667 52.3118 184.628 53.4916 184.651 54.6635C184.667 55.5561 184.271 55.9752 183.332 55.9442C181.849 55.8976 180.375 55.9286 178.892 55.9131C177.612 55.8976 177.41 55.688 177.402 54.3453C177.387 51.4969 177.379 48.6484 177.379 45.8078C177.379 44.2477 177.604 44.0382 179.172 44.0459C185.241 44.077 191.318 44.1546 197.387 44.108C198.512 44.1003 199.692 43.751 200.755 43.3319C201.818 42.9205 202.02 41.8883 201.849 40.8327C201.679 39.7849 201.042 39.1097 200.026 38.8846C199.288 38.7216 198.52 38.644 197.767 38.644C191.807 38.6362 185.846 38.6673 179.893 38.675C179.342 38.675 178.791 38.6052 178.015 38.5509C178.271 38.0153 178.388 37.6195 178.621 37.3168C179.661 35.9663 180.701 34.6081 181.826 33.3274C182.136 32.9704 182.742 32.6832 183.207 32.6832C188.935 32.7065 194.671 32.722 200.398 32.8773C202.548 32.9394 204.558 33.7388 206.304 35.0349C208.609 36.7502 209.649 39.0553 209.176 41.896C208.703 44.7367 207.259 46.8944 204.349 47.818C203.34 48.1362 203.309 48.5398 204.1 49.3237C205.746 50.9458 207.383 52.5835 208.997 54.2444C209.354 54.6092 209.603 55.0749 209.898 55.494C209.851 55.6415 209.805 55.7889 209.75 55.9286Z" fill="white"/>
<path d="M174.57 50.2163C174.143 50.9071 173.91 51.365 173.6 51.7763C172.893 52.7155 172.086 53.5847 171.434 54.5549C170.767 55.5561 169.913 55.8976 168.749 55.8976C162.563 55.8899 156.378 55.9364 150.192 55.9675C147.802 55.9753 147.763 55.8976 147.794 53.4528C147.848 47.95 147.864 42.4471 147.887 36.9443C147.887 36.075 147.833 35.198 147.825 34.3287C147.81 32.7764 148.042 32.5591 149.602 32.5668C155.866 32.5979 162.129 32.6367 168.384 32.66C170.014 32.6677 171.644 32.6057 173.281 32.6134C173.592 32.6134 173.91 32.7997 174.22 32.9006C174.104 33.2343 174.057 33.6302 173.856 33.9018C172.924 35.1436 171.931 36.3467 170.992 37.5807C170.441 38.3103 169.758 38.6207 168.842 38.613C164.783 38.5587 160.724 38.5276 156.665 38.5354C156.145 38.5354 155.268 38.6751 155.167 38.9312C154.934 39.653 154.911 40.5378 155.268 41.1122C155.346 41.3605 156.106 41.508 156.556 41.508C161.415 41.5235 166.273 41.4925 171.132 41.508C171.745 41.508 172.35 41.7175 172.963 41.8262C172.661 42.3617 172.381 42.9128 172.04 43.4173C171.721 43.8907 171.248 44.2633 170.992 44.76C170.13 46.421 168.764 46.7547 167.01 46.6926C163.448 46.5607 159.878 46.5995 156.308 46.5762C155.152 46.5684 154.895 46.8401 154.95 47.9888C154.965 48.2527 155.012 48.5165 154.996 48.7804C154.942 49.7894 155.47 50.0843 156.401 50.0766C160.577 50.0378 164.752 50.03 168.927 50.0145C170.332 50.0145 171.737 50.03 173.142 50.0533C173.499 50.0688 173.863 50.1309 174.57 50.2163Z" fill="white"/>
<path d="M143.525 33.1644C142.423 34.0026 141.337 34.8642 140.219 35.6791C136.905 38.0929 133.591 40.4834 130.262 42.8817C129.524 43.4172 129.602 43.8596 130.285 44.3874C134.701 47.7947 139.094 51.2252 143.51 54.6325C143.859 54.9041 144.286 55.0826 144.674 55.3077C144.573 55.4785 144.464 55.6492 144.364 55.82C144.061 55.8743 143.758 55.9752 143.456 55.983C140.988 55.9985 138.52 55.983 136.059 55.9985C134.98 56.0062 134.103 55.6259 133.289 54.8964C130.246 52.1566 127.165 49.4556 124.084 46.7546C123.828 46.5296 123.448 46.4442 123.122 46.289C123.013 46.6693 122.819 47.0496 122.819 47.4299C122.842 49.8204 122.873 52.2109 122.974 54.6014C123.021 55.657 122.586 56.0373 121.577 56.014C120.172 55.9752 118.768 55.9674 117.363 56.0218C116.276 56.0683 115.873 55.6104 115.881 54.5471C115.904 50.4491 115.888 46.351 115.881 42.253C115.873 39.521 115.881 36.789 115.826 34.057C115.803 33.0402 116.183 32.5823 117.208 32.5978C118.69 32.6211 120.165 32.6056 121.647 32.5901C122.594 32.5823 123.021 32.9937 122.99 33.9716C122.92 36.1681 122.904 38.3723 122.897 40.5766C122.897 40.9569 123.083 41.3372 123.191 41.7175C123.541 41.5467 123.952 41.4381 124.239 41.1975C127.328 38.5664 130.386 35.9042 133.49 33.2886C133.871 32.9704 134.437 32.7143 134.918 32.6987C137.495 32.6289 140.079 32.6366 142.656 32.6366C142.897 32.6366 143.145 32.7686 143.386 32.8384C143.432 32.9393 143.479 33.0558 143.525 33.1644Z" fill="white"/>
<path d="M116.028 67.3845C116.028 65.2967 116.059 63.2088 116.013 61.121C115.989 60.0887 116.424 59.6619 117.425 59.6774C118.791 59.7007 120.157 59.6929 121.523 59.6852C122.478 59.6852 122.866 60.1431 122.858 61.0977C122.811 64.7766 122.749 68.4633 122.819 72.1422C122.842 73.1978 123.06 74.3775 123.587 75.2545C124.34 76.5119 125.83 76.8068 127.196 76.8689C129.618 76.9776 132.055 77.0009 134.468 76.8844C137.487 76.737 138.768 75.3089 138.768 72.2974C138.768 68.5797 138.768 64.8542 138.698 61.1365C138.683 60.0422 139.086 59.6153 140.157 59.6463C141.678 59.6929 143.192 59.6774 144.713 59.6852C145.512 59.6929 145.908 60.0887 145.893 60.8804C145.815 65.2811 145.924 69.6974 145.59 74.0748C145.311 77.6839 143.238 80.1675 139.723 81.4792C136.696 82.6124 133.568 82.7986 130.425 82.7753C127.577 82.7598 124.775 82.4106 122.058 81.355C118.488 79.9735 116.222 77.1173 116.082 73.2909C116.005 71.3195 116.067 69.3403 116.067 67.369C116.051 67.3845 116.036 67.3845 116.028 67.3845Z" fill="white"/>
<path d="M228.028 82.2398C227.57 82.3174 227.143 82.4338 226.708 82.4493C225.001 82.5114 223.293 82.589 221.586 82.5813C211.908 82.5735 202.23 82.589 192.56 82.4804C190.418 82.4571 188.252 82.1311 186.149 81.6887C183.363 81.0989 181.213 79.4767 179.738 76.9775C178.396 74.7112 177.744 72.2276 177.449 69.6508C177.309 68.4478 177.651 68.1295 178.838 68.1218C180.165 68.1063 181.492 68.1683 182.819 68.1528C183.953 68.1451 184.426 68.6418 184.519 69.7827C184.612 70.9392 184.76 72.1655 185.225 73.2055C186.39 75.8056 188.625 76.7059 191.357 76.6671C195.912 76.605 200.46 76.5739 205.016 76.5507C209.572 76.5274 214.12 76.5119 218.676 76.5507C219.281 76.5584 219.948 76.7913 220.476 77.1173C222.789 78.5454 225.063 80.0433 227.352 81.518C227.546 81.6422 227.733 81.7663 227.911 81.906C227.958 81.9448 227.958 82.038 228.028 82.2398Z" fill="white"/>
</svg>
