<svg width="30" height="30" viewBox="0 0 30 30" fill="none" xmlns="http://www.w3.org/2000/svg">
<path fill-rule="evenodd" clip-rule="evenodd" d="M13.8246 1.29214C20.4926 0.736046 26.1095 5.75295 26.2501 12.2216L26.2504 12.2488C26.2504 14.5099 25.5421 16.6232 24.2867 18.4379L24.2742 18.4556L17.9297 27.2951C17.9171 27.3127 17.9041 27.3299 17.8906 27.3467C16.4322 29.1711 13.564 29.2833 12.1627 27.2897L5.81607 18.4473C4.1617 16.1018 3.29235 13.1405 3.99538 10.0065C4.86227 5.30734 8.95963 1.84799 13.7865 1.29592C13.7992 1.29446 13.8119 1.29321 13.8246 1.29214ZM14.0515 3.78192C10.1882 4.23163 7.08578 6.98185 6.45021 10.4802C6.44696 10.4981 6.44333 10.5159 6.4393 10.5336C5.9096 12.8661 6.53152 15.1221 7.85614 17.0022L14.2065 25.8497C14.5449 26.3335 15.3889 26.4468 15.9205 25.807L22.2367 17.007C23.2142 15.5906 23.7475 13.9767 23.7503 12.2624C23.6346 7.28953 19.3128 3.35353 14.0515 3.78192Z" fill="white"/>
<path fill-rule="evenodd" clip-rule="evenodd" d="M15 9.875C13.6883 9.875 12.625 10.9383 12.625 12.25C12.625 13.5617 13.6883 14.625 15 14.625C16.3117 14.625 17.375 13.5617 17.375 12.25C17.375 10.9383 16.3117 9.875 15 9.875ZM10.125 12.25C10.125 9.55761 12.3076 7.375 15 7.375C17.6924 7.375 19.875 9.55761 19.875 12.25C19.875 14.9424 17.6924 17.125 15 17.125C12.3076 17.125 10.125 14.9424 10.125 12.25Z" fill="white"/>
<path fill-rule="evenodd" clip-rule="evenodd" d="M15 9.875C13.6883 9.875 12.625 10.9383 12.625 12.25C12.625 13.5617 13.6883 14.625 15 14.625C16.3117 14.625 17.375 13.5617 17.375 12.25C17.375 10.9383 16.3117 9.875 15 9.875ZM10.125 12.25C10.125 9.55761 12.3076 7.375 15 7.375C17.6924 7.375 19.875 9.55761 19.875 12.25C19.875 14.9424 17.6924 17.125 15 17.125C12.3076 17.125 10.125 14.9424 10.125 12.25Z" fill="white"/>
<path fill-rule="evenodd" clip-rule="evenodd" d="M15 9.875C13.6883 9.875 12.625 10.9383 12.625 12.25C12.625 13.5617 13.6883 14.625 15 14.625C16.3117 14.625 17.375 13.5617 17.375 12.25C17.375 10.9383 16.3117 9.875 15 9.875ZM10.125 12.25C10.125 9.55761 12.3076 7.375 15 7.375C17.6924 7.375 19.875 9.55761 19.875 12.25C19.875 14.9424 17.6924 17.125 15 17.125C12.3076 17.125 10.125 14.9424 10.125 12.25Z" fill="white"/>
</svg>
