<svg width="22" height="22" viewBox="0 0 22 22" fill="none" xmlns="http://www.w3.org/2000/svg">
<path fill-rule="evenodd" clip-rule="evenodd" d="M2.57495 0.785073C3.86403 -0.499904 6.02542 -0.14057 6.93802 1.37559L6.94437 1.38614L9.04806 4.98116C9.66756 6.06185 9.51128 7.45112 8.58705 8.37241L8.23813 8.72022C9.47356 10.658 11.3503 12.575 13.2473 13.7248L13.5942 13.4175C14.5184 12.5164 15.898 12.3683 16.9731 12.9807L16.9809 12.9852L20.5408 15.0552C21.4222 15.4771 21.8861 16.2924 21.981 17.1064C22.0759 17.9196 21.8156 18.8022 21.1826 19.4332L19.983 20.629C18.7376 21.8705 16.7101 22.4199 14.9799 21.636C12.7025 20.7053 9.28676 18.9491 6.17369 15.8459C3.05248 12.7347 1.29312 9.22351 0.368768 7.07565C-0.419794 5.3562 0.123602 3.34015 1.36039 2.0955L2.54727 0.813798C2.5563 0.80404 2.56553 0.794463 2.57495 0.785073ZM3.99956 2.18371L2.81678 3.46098C2.80774 3.47074 2.79851 3.48032 2.78909 3.48971C2.04036 4.23606 1.79124 5.39219 2.19016 6.25375C2.194 6.26205 2.19773 6.2704 2.20134 6.2788C3.07772 8.31719 4.71644 11.5749 7.5874 14.4367C10.4635 17.3037 13.635 18.9343 15.7561 19.7993C15.7697 19.8048 15.7831 19.8107 15.7965 19.8168C16.6608 20.2145 17.8206 19.9661 18.5693 19.2198L19.7689 18.024C19.9356 17.8578 20.0252 17.5946 19.9951 17.3366C19.9669 17.095 19.8472 16.9294 19.6622 16.8457C19.6315 16.8317 19.6014 16.8162 19.5722 16.7992L15.9781 14.7093C15.6631 14.5317 15.2592 14.5759 14.9848 14.8495C14.971 14.8633 14.9567 14.8767 14.9421 14.8896L14.0424 15.6868C13.7325 15.9613 13.2849 16.0168 12.9171 15.8261C10.2199 14.4281 7.58822 11.6858 6.10831 9.0515C5.88962 8.66223 5.95716 8.17549 6.27365 7.86001L7.17334 6.96319C7.44778 6.68962 7.49207 6.28699 7.31392 5.97306L5.22104 2.39666C4.93617 1.92942 4.31277 1.88679 3.99956 2.18371Z" fill="white"/>
</svg>
