<svg width="97" height="53" viewBox="0 0 97 53" fill="none" xmlns="http://www.w3.org/2000/svg">
<path d="M24.1021 8.64263C23.3132 9.9844 22.1692 10.3396 20.7491 10.1028C20.7886 10.379 20.9464 10.5369 21.1436 10.6553C21.4986 10.8131 21.8931 11.0105 22.2876 11.0894C23.1554 11.2472 23.9838 11.563 24.7333 11.9971C25.6011 12.5496 26.4689 13.1415 27.2973 13.694C27.3762 13.7335 27.4157 13.7729 27.4946 13.8519C27.4946 13.8124 27.4946 13.7729 27.4946 13.7335C26.824 12.589 26.035 11.6024 24.9305 10.8921C24.5755 10.6553 24.1416 10.4974 23.7471 10.3001C23.6682 10.2607 23.5499 10.1817 23.471 10.1423C23.5499 10.0633 23.5893 9.94494 23.6682 9.86601C24.8516 8.95834 26.1928 8.52424 27.7312 8.6821C29.9403 8.91888 32.0704 9.51084 34.0822 10.5369C35.2262 11.1289 36.2912 11.8787 37.1985 12.7863C37.238 12.8258 37.2774 12.8258 37.3563 12.8653C37.2774 12.6285 37.1985 12.3917 37.0802 12.1549C36.9618 11.9181 36.8435 11.6814 36.7251 11.484C36.6068 11.2472 36.449 11.0499 36.2912 10.7737C36.6857 10.8526 37.0407 10.8921 37.3957 10.9315C39.7231 11.3656 41.9321 12.076 44.1806 12.7863C51.5177 15.1542 58.6182 18.035 65.6003 21.2711C68.0855 22.4155 70.5312 23.7573 72.9769 25.0201C75.5409 26.3619 78.105 27.7432 80.7085 29.0455C82.1286 29.7558 83.667 30.0321 85.2843 29.6769C85.5604 29.598 85.8366 29.4401 86.1127 29.3217C86.4283 29.1639 86.7439 29.006 87.0594 28.8876C87.2961 28.8087 87.5722 28.7692 87.8089 29.006C88.0456 29.2428 88.085 29.5585 88.0062 29.8742C87.9273 30.2294 87.6906 30.4662 87.4539 30.7029C86.8622 31.2554 86.1916 31.6106 85.4027 31.7685C84.2981 31.9658 83.1542 32.0447 82.0497 31.8079C80.669 31.5317 79.4462 30.8608 78.46 29.8742C77.7105 29.1244 76.961 28.414 76.251 27.6248C75.462 26.796 74.4759 26.4408 73.3319 26.3619C72.0696 26.283 70.7678 26.1251 69.5055 26.0067C68.2038 25.8883 67.1782 25.2175 66.3498 24.1914C66.0342 23.7968 65.7581 23.4021 65.4425 23.0075C65.048 22.455 64.4958 21.9814 64.0224 21.7446V21.7841C64.6536 22.3761 65.0086 23.1653 65.3636 23.9152C65.6397 24.5071 65.9553 25.0991 66.3892 25.6121C67.0204 26.283 67.7699 26.6776 68.6772 26.7171C70.0578 26.7566 71.4779 26.7566 72.8585 26.7566C74.2786 26.7566 75.5015 27.1512 76.4482 28.2956C77.1188 29.0849 77.8288 29.8742 78.4994 30.6635C79.0123 31.2554 79.6434 31.6895 80.314 32.0447C80.6296 32.2026 80.9057 32.4394 81.1818 32.6761C81.2607 32.7551 81.3396 32.8735 81.4185 32.9524C81.6157 33.3076 81.6158 33.426 81.2607 33.6627C80.7479 34.0179 80.1562 34.0179 79.5645 33.939C79.2095 33.8995 78.8939 33.8206 78.4994 33.7417C79.2489 34.4125 80.0773 34.5704 80.9846 34.3731C80.7874 34.6099 80.2746 34.8861 79.8406 34.8861C79.2884 34.9256 78.7756 34.7283 78.3022 34.452C77.5527 34.0179 76.9216 33.3865 76.2904 32.7945C75.5015 32.0842 74.6731 31.3738 73.8447 30.7029C73.1347 30.111 72.2668 29.8742 71.3595 29.7163C70.0578 29.519 68.7166 29.519 67.3754 29.598C66.3892 29.6769 65.4031 29.7163 64.3774 29.7558C62.0895 29.8347 60.1566 29.0455 58.5393 27.4669C57.632 26.5987 56.922 25.5726 56.2908 24.4676C55.4624 23.0075 54.3974 21.7841 53.0956 20.758C52.8195 20.5607 52.5434 20.4029 52.2278 20.245C52.7406 20.8764 53.4112 21.4289 53.5295 22.3366C52.4645 22.0604 51.4389 22.2577 50.4132 22.3761C48.0859 22.6523 45.7585 22.7707 43.4706 22.2971C42.7211 22.1393 41.9716 21.942 41.2615 21.5473C41.1826 21.5079 41.1038 21.3895 41.1038 21.35C41.2615 20.3634 40.946 19.4557 40.4726 18.5875C40.4332 18.5481 40.4332 18.5086 40.3543 18.3902C42.8394 19.14 45.3246 19.5741 47.8886 19.14C46.2319 19.0611 44.6145 18.7849 42.9972 18.3113C41.4193 17.8377 39.9203 17.1274 38.5792 16.1802C38.6186 16.2592 38.658 16.2986 38.6975 16.3776C39.3681 17.3247 39.9598 18.3113 40.2359 19.4557C40.3543 19.8898 40.3543 20.3239 40.3543 20.758C40.3543 21.3895 39.9992 21.863 39.447 22.1787C38.6975 22.6128 37.8691 22.6523 37.0407 22.6128C35.8573 22.5734 34.7528 22.2182 33.6483 21.9025C31.7548 21.3895 29.8614 20.837 27.9679 20.3239C27.6524 20.245 27.3368 20.2056 26.9818 20.2056C26.4295 20.2056 26.035 20.5213 25.7589 20.9948C25.7195 21.0343 25.7195 21.1132 25.7195 21.1527C25.5617 21.7841 25.1672 22.2182 24.6544 22.6128C24.6149 22.6523 24.4966 22.6523 24.4177 22.6128C23.5104 22.4155 23.0765 21.7446 23.2737 20.7975C23.2737 20.7186 23.3132 20.6791 23.3132 20.5607C22.6031 21.5079 22.682 22.6523 23.8654 23.0864C23.6288 23.1653 23.4315 23.2837 23.2343 23.3232C23.1949 23.3232 23.116 23.2837 23.0765 23.2443C22.1692 22.6128 21.9325 21.6263 22.4848 20.6791C22.8398 20.0477 23.2737 19.4557 23.826 18.9427C24.5755 18.2324 25.4433 17.8772 26.4295 17.7193C27.534 17.522 28.6385 17.4036 29.7825 17.4825C30.4531 17.522 31.1237 17.7193 31.7548 17.9956C32.7805 18.3902 33.8061 18.7454 34.8711 18.9032C34.95 18.9032 35.0289 18.9032 35.1473 18.9032C34.9895 18.8243 34.7922 18.7849 34.6345 18.7059C33.3722 18.2718 32.2282 17.6404 31.242 16.6933C30.5714 16.0224 30.0981 15.2726 29.9403 14.3254C29.9403 14.286 29.9403 14.2465 29.9008 14.1676C29.6247 15.0358 29.743 15.904 30.0192 16.7722C29.7825 16.6143 29.5853 16.4959 29.4275 16.417C28.5991 15.9435 27.7707 15.4304 26.9423 14.9963C26.2323 14.6411 25.4828 14.4044 24.6938 14.286C24.2599 14.207 24.0627 13.8913 23.826 13.5362C23.5893 13.1415 23.3526 12.7863 23.0765 12.4312C22.8004 12.076 22.4059 11.7997 21.972 11.7208C22.0903 12.076 22.2481 12.3917 22.327 12.7469C22.4059 13.1415 22.4454 13.5362 22.4059 13.9308C22.3665 14.6411 21.9325 15.1147 21.3408 15.5093C21.1831 15.5883 21.0253 15.7067 20.8675 15.7461C20.5519 15.8251 20.3152 16.0618 20.1574 16.3381C19.8813 16.6933 19.5657 17.0879 19.2896 17.4431C19.0924 17.6799 18.8557 17.7588 18.5796 17.6404C18.4218 17.6009 18.264 17.522 18.1062 17.4431C17.8301 17.3247 17.8301 17.2063 18.0273 17.009C18.3823 16.6933 18.7373 16.3381 19.0529 15.9829C19.2896 15.7461 19.4868 15.4304 19.6446 15.1542C20.1574 14.207 19.9997 13.2994 19.4079 12.4706C18.8951 11.7208 17.6723 11.6419 17.1989 12.6285C17.0017 13.0626 16.765 13.4967 16.5678 13.9308C16.4494 14.1281 16.3311 14.3649 16.1733 14.5228C15.9761 14.7595 15.7394 14.799 15.4238 14.7201C14.6349 14.5622 14.2798 13.8124 14.6349 13.1021C15.0293 12.2338 15.6999 11.7208 16.6467 11.6419C17.7117 11.563 18.4612 10.971 18.974 10.0633C18.974 10.0239 19.0135 9.9844 19.0135 9.9844C19.0135 9.9844 19.0135 9.94494 19.0135 9.90548C18.974 9.90548 18.8951 9.90548 18.8557 9.90548C18.5007 9.90548 18.1456 9.90548 17.7512 9.94494C17.12 9.9844 16.765 10.4185 16.5283 10.9315C16.3705 11.2472 16.1733 11.3262 15.9366 11.1683C15.7394 11.0499 15.621 10.7342 15.8183 10.4974C16.0155 10.2607 16.2127 10.0633 16.4494 9.90548C17.1595 9.43191 17.9879 9.19513 18.7768 8.95834C20.5519 8.60317 22.2876 8.60317 24.1021 8.64263ZM21.262 9.47137C21.972 9.58977 22.6031 9.39245 23.1554 9.07673C22.5243 9.07673 21.8537 8.91888 21.262 9.47137Z" fill="white"/>
<path d="M90.9645 45.5018C90.8462 45.5018 90.7673 45.5018 90.7279 45.5018C89.86 45.5018 88.9922 45.5018 88.1244 45.5018C88.006 45.5018 87.8482 45.4624 87.7693 45.3834C86.6254 44.6731 85.4814 43.9627 84.3769 43.2918C84.2586 43.2129 84.1008 43.1735 83.9824 43.1735C83.0357 43.1735 82.1284 43.1735 81.1817 43.1735C81.1028 43.1735 81.0239 43.1735 80.9056 43.1735C80.9056 43.3313 80.9056 43.4497 80.9056 43.5681C80.9056 44.1601 80.9056 44.7126 80.9056 45.3045C80.9056 45.3834 80.9056 45.5018 80.7872 45.5018C79.9983 45.5018 79.2093 45.5018 78.4204 45.5018C78.4204 43.2524 78.4204 41.0029 78.4204 38.793C78.4993 38.793 78.5388 38.793 78.6176 38.793C81.3395 38.793 84.0613 38.793 86.8226 38.793C87.5327 38.793 88.2427 38.8324 88.9527 39.0692C90.3728 39.5428 90.8856 41.1213 89.9784 42.2263C89.7417 42.542 89.3867 42.7394 89.0316 42.8183C88.4794 42.9367 87.9271 43.0156 87.3749 43.134C87.3354 43.134 87.296 43.134 87.1382 43.134C88.361 43.9627 89.6233 44.7126 90.9645 45.5018ZM80.8661 42.3447C80.945 42.3447 80.9845 42.3447 81.0239 42.3447C82.6018 42.3447 84.1797 42.3447 85.7575 42.3447C86.1126 42.3447 86.507 42.3053 86.8621 42.2658C87.3749 42.1869 87.6904 41.9106 87.7693 41.3976C87.8088 41.1213 87.8088 40.8056 87.7693 40.5294C87.7299 40.1347 87.4932 39.8585 87.0987 39.7796C86.8621 39.7006 86.6254 39.6612 86.4281 39.6612C84.6136 39.6612 82.799 39.6612 80.9845 39.6217C80.945 39.6217 80.9056 39.6217 80.8661 39.6217C80.8661 40.5688 80.8661 41.437 80.8661 42.3447Z" fill="white"/>
<path d="M48.4013 38.793C49.2296 38.793 50.058 38.793 50.8864 38.793C50.8864 38.8719 50.8864 38.9508 50.8864 39.0298C50.8864 40.0953 50.8864 41.1213 50.8864 42.1869C50.8864 42.4631 50.8864 42.7394 50.9653 43.0156C51.1625 44.0417 51.8331 44.5942 52.7799 44.7915C54.0027 45.0283 55.2256 45.0283 56.4484 44.7915C57.553 44.5547 58.1841 43.8049 58.2236 42.6604C58.263 41.4765 58.263 40.2926 58.263 39.1087C58.263 39.0298 58.263 38.9508 58.263 38.8324C59.0914 38.8324 59.9198 38.8324 60.7482 38.8324C60.7482 38.9114 60.7482 38.9903 60.7482 39.0692C60.7482 40.1742 60.7482 41.2397 60.7482 42.3447C60.7482 42.6604 60.7482 42.9367 60.6693 43.2524C60.5115 44.239 59.8803 44.8704 58.973 45.265C58.2235 45.5808 57.4346 45.6597 56.6457 45.7386C55.265 45.857 53.8844 45.857 52.5037 45.7386C51.7148 45.6597 50.9653 45.5808 50.2158 45.3045C48.993 44.8309 48.3618 43.9233 48.3618 42.621C48.3618 41.3976 48.3618 40.1742 48.3618 38.9508C48.4013 38.8719 48.4013 38.8324 48.4013 38.793Z" fill="white"/>
<path d="M45.3639 38.793C45.3639 39.1087 45.3639 39.3849 45.3639 39.7006C45.285 39.7006 45.1667 39.7006 45.0878 39.7006C42.9971 39.7006 40.867 39.7006 38.7763 39.7006C38.3818 39.7006 37.9479 39.7401 37.5534 39.819C36.1333 40.1347 35.5811 41.1608 35.7389 42.5026C35.8967 43.6865 36.6067 44.3574 37.869 44.5152C38.3029 44.5547 38.6974 44.5942 39.1313 44.5942C40.3542 44.5942 41.6165 44.5942 42.8393 44.5942C42.9182 44.5942 42.9971 44.5942 43.1155 44.5942C43.1155 43.8443 43.1155 43.134 43.1155 42.4236C43.9438 42.4236 44.7722 42.4236 45.6006 42.4236C45.6006 42.5026 45.6006 42.542 45.6006 42.621C45.6006 43.4892 45.6006 44.3968 45.6006 45.265C45.6006 45.4624 45.5612 45.5018 45.3639 45.5018C42.9971 45.5018 40.6303 45.5018 38.2635 45.5018C37.1984 45.5018 36.1333 45.4229 35.1472 45.0283C34.0821 44.6336 33.3721 43.9233 33.1748 42.7788C32.8987 41.3187 33.5298 40.0163 34.871 39.3849C35.5811 39.0298 36.37 38.8719 37.1195 38.8324C37.7507 38.793 38.3424 38.793 38.9735 38.793C40.9853 38.793 43.0366 38.793 45.0484 38.793C45.1667 38.793 45.2456 38.793 45.3639 38.793Z" fill="white"/>
<path d="M32.1888 45.5019C32.1099 45.5019 32.031 45.5019 31.9915 45.5019C31.2026 45.5019 30.3742 45.5019 29.5853 45.5019C29.4669 45.5019 29.3486 45.4625 29.3091 45.3835C28.9541 44.9889 28.6385 44.5942 28.2835 44.2391C28.2046 44.1601 28.0863 44.1207 28.0074 44.1207C25.6406 44.1207 23.2737 44.1207 20.9069 44.1207C20.828 44.1207 20.6703 44.1996 20.6308 44.2785C20.2758 44.6732 19.9602 45.0678 19.6446 45.423C19.5657 45.5019 19.4474 45.5414 19.3685 45.5414C18.974 45.5414 18.5401 45.5414 18.1062 45.5414C18.1851 45.4625 18.1851 45.423 18.2245 45.3835C20.0785 43.2525 21.9326 41.082 23.826 38.9509C23.9049 38.872 24.0232 38.8325 24.1021 38.8325C24.8122 38.8325 25.5222 38.8325 26.2323 38.8325C26.3112 38.8325 26.4295 38.872 26.5084 38.9509C28.4018 41.1214 30.2559 43.2525 32.1493 45.423C32.1099 45.423 32.1493 45.4625 32.1888 45.5019ZM24.4177 39.7797C23.4315 40.9241 22.4454 42.0686 21.4592 43.213C23.4315 43.213 25.4039 43.213 27.3762 43.213C26.3901 42.0686 25.4039 40.9241 24.4177 39.7797Z" fill="white"/>
<path d="M76.0931 45.5413C75.7381 45.5413 75.4619 45.5413 75.1858 45.5413C74.6336 45.5413 74.0418 45.5413 73.4896 45.5413C73.3318 45.5413 73.2529 45.5019 73.1346 45.3835C72.819 44.9888 72.5034 44.6337 72.1484 44.2785C72.0695 44.1996 71.9512 44.1206 71.8328 44.1206C69.466 44.1206 67.0992 44.1206 64.7718 44.1206C64.6929 44.1206 64.5351 44.1996 64.4957 44.239C64.1801 44.5942 63.8251 44.9888 63.5095 45.344C63.3912 45.4624 63.2728 45.5413 63.115 45.5019C62.7206 45.5019 62.3656 45.5019 61.9316 45.5019C61.9711 45.4229 62.0105 45.3835 62.05 45.344C63.904 43.213 65.758 41.0424 67.6514 38.9114C67.7303 38.793 67.8487 38.7535 67.967 38.7535C68.6771 38.7535 69.3477 38.7535 70.0577 38.7535C70.1761 38.7535 70.2944 38.793 70.3338 38.8719C72.1878 41.003 74.0418 43.134 75.8959 45.2651C75.9747 45.3835 76.0142 45.4229 76.0931 45.5413ZM68.322 39.7796C67.3359 40.9241 66.3497 42.0685 65.3635 43.213C67.3359 43.213 69.3082 43.213 71.2806 43.213C70.2944 42.0685 69.3082 40.9241 68.322 39.7796Z" fill="white"/>
<path d="M6.11426 45.5019C6.11426 45.1862 6.11426 44.9494 6.11426 44.6337C6.19315 44.6337 6.27205 44.6337 6.35094 44.6337C7.88937 44.6337 9.46725 44.6337 11.0057 44.6337C11.5974 44.6337 12.1496 44.5548 12.7019 44.3969C13.7275 44.1207 14.2798 43.3709 14.2798 42.3053C14.3192 41.2398 14.2798 40.1743 14.2798 39.1088C14.2798 39.0298 14.2798 38.9509 14.2798 38.8325C15.1082 38.8325 15.9365 38.8325 16.7649 38.8325C16.7649 38.872 16.7649 38.9509 16.7649 39.0298C16.7649 40.1348 16.7649 41.2398 16.7649 42.3053C16.7649 42.6605 16.686 43.0157 16.6071 43.3709C16.3705 44.1996 15.7788 44.6732 14.9898 44.9889C14.2798 45.2651 13.5697 45.4625 12.8202 45.4625C10.6112 45.5019 8.36273 45.5019 6.1537 45.5414C6.2326 45.5414 6.19315 45.5414 6.11426 45.5019Z" fill="white"/>
<path d="M51.1628 14.7595C50.5316 14.5227 49.9005 14.2859 49.2693 14.0886C46.3897 13.102 43.5101 12.0759 40.5515 11.2472C38.8553 10.7736 37.1197 10.4185 35.384 10.2211C35.3446 10.2211 35.3446 10.2211 35.2657 10.2211C35.4234 10.4974 35.5812 10.7342 35.7785 11.0499C35.6601 10.971 35.6207 10.971 35.5812 10.9315C33.6089 9.58972 31.3999 8.80044 29.0725 8.40581C28.4808 8.28741 27.8496 8.24795 27.2579 8.16902C26.3901 8.0901 25.5617 8.28741 24.7728 8.60313C24.6939 8.64259 24.6544 8.64259 24.5361 8.72152C24.6544 8.5242 24.7333 8.32688 24.8517 8.12956C23.5894 8.12956 22.406 8.12956 21.1831 8.12956C21.1831 8.12956 21.1831 8.12956 21.1831 8.0901C21.4987 8.05063 21.7748 8.01117 22.0904 7.9717C22.406 7.93224 22.7215 7.89278 23.0371 7.89278C25.6801 7.73492 28.323 8.01117 30.9265 8.44527C35.6996 9.23455 40.3149 10.5763 44.8513 12.2338C46.9419 12.9836 49.0326 13.8518 51.0839 14.6806C51.1233 14.72 51.1628 14.72 51.1628 14.7595Z" fill="white"/>
<path d="M16.8044 11.2867C16.9228 10.971 17.1989 10.7737 17.4356 10.6158C17.5934 10.4974 17.8301 10.5369 18.0667 10.4974C17.909 10.971 17.4356 11.2867 16.8044 11.2867Z" fill="white"/>
<path d="M22.3269 10.5763C22.5241 10.4973 22.7608 10.4184 22.9975 10.3395C23.1158 10.6157 23.3525 10.7341 23.6287 10.813C24.102 10.9709 24.4965 11.2077 24.891 11.5234C24.0626 11.1288 23.2342 10.7341 22.3269 10.5763Z" fill="white"/>
<path d="M14.2009 12.8258C14.6348 12.3522 15.1082 11.8392 15.5816 11.3656C15.6605 11.4445 15.7394 11.484 15.7788 11.5235C15.266 11.997 14.7532 12.4311 14.2798 12.8652C14.2404 12.8652 14.2009 12.8258 14.2009 12.8258Z" fill="white"/>
<path d="M17.9878 12.589C18.4612 12.3522 19.0134 12.6284 19.2106 13.2204C18.9345 12.7863 18.5401 12.589 17.9878 12.589Z" fill="white"/>
</svg>
