<svg width="20" height="20" viewBox="0 0 20 20" fill="none" xmlns="http://www.w3.org/2000/svg">
<path d="M10.0003 1.66663C5.41699 1.66663 1.66699 5.41663 1.66699 9.99996C1.66699 14.5833 5.41699 18.3333 10.0003 18.3333C14.5837 18.3333 18.3337 14.5833 18.3337 9.99996C18.3337 5.41663 14.5837 1.66663 10.0003 1.66663ZM10.0003 16.6666C6.33366 16.6666 3.33366 13.6666 3.33366 9.99996C3.33366 6.33329 6.33366 3.33329 10.0003 3.33329C13.667 3.33329 16.667 6.33329 16.667 9.99996C16.667 13.6666 13.667 16.6666 10.0003 16.6666Z" fill="white"/>
<path d="M13.3337 6.66663C13.0003 6.33329 12.5003 6.33329 12.167 6.66663L10.0003 8.83329L7.83366 6.66663C7.50033 6.33329 7.00033 6.33329 6.66699 6.66663C6.33366 6.99996 6.33366 7.49996 6.66699 7.83329L8.83366 9.99996L6.66699 12.1666C6.33366 12.5 6.33366 13 6.66699 13.3333C6.83366 13.5 7.08366 13.5833 7.25033 13.5833C7.41699 13.5833 7.66699 13.5 7.83366 13.3333L10.0003 11.1666L12.167 13.3333C12.3337 13.5 12.5837 13.5833 12.7503 13.5833C12.917 13.5833 13.167 13.5 13.3337 13.3333C13.667 13 13.667 12.5 13.3337 12.1666L11.167 9.99996L13.3337 7.83329C13.667 7.49996 13.667 6.99996 13.3337 6.66663Z" fill="white"/>
</svg>
