<svg width="47" height="39" viewBox="0 0 47 39" fill="none" xmlns="http://www.w3.org/2000/svg">
<path d="M36.1075 36.917C36.0815 36.9043 36.057 36.8876 36.0301 36.8805C35.8896 36.8416 35.7814 36.7576 35.6796 36.6554C34.4321 35.4006 33.1831 34.1474 31.9348 32.8942C30.5112 31.4651 29.0877 30.0359 27.6641 28.6068C27.627 28.5695 27.5883 28.5339 27.5528 28.4998C23.9067 30.7795 20.0063 31.4342 15.8628 30.2967C12.4923 29.3709 9.81886 27.4075 7.85842 24.5048C3.95728 18.7288 4.74682 10.9045 9.87886 6.02498C14.9983 1.1581 22.8582 0.789519 28.3731 5.04209C31.2771 7.28133 33.0994 10.2236 33.7649 13.8413C34.429 17.4502 33.7728 20.838 31.8953 24.0023C31.934 24.0427 31.9774 24.0879 32.0208 24.1315C34.6792 26.8004 37.3376 29.4692 39.9976 32.1365C40.146 32.2855 40.2897 32.4329 40.3284 32.6501C40.3284 32.7571 40.3284 32.8641 40.3284 32.9719C40.3205 32.9886 40.3087 33.0044 40.304 33.0219C40.2597 33.1748 40.2321 33.3342 40.1713 33.4808C40.0063 33.8803 39.7607 34.2307 39.4615 34.5382C38.9815 35.032 38.4927 35.5171 38.0072 36.0046C37.9527 36.0593 37.8935 36.11 37.8343 36.16C37.4355 36.4929 37.0052 36.764 36.4912 36.8797C36.4597 36.8868 36.4304 36.9051 36.3997 36.9177C36.301 36.917 36.2046 36.917 36.1075 36.917ZM10.1434 16.4475C10.141 21.7504 14.4203 26.0521 19.6992 26.0561C24.9726 26.0592 29.2527 21.767 29.259 16.4689C29.2653 11.1709 24.9923 6.8747 19.7134 6.87232C14.4306 6.86994 10.1449 11.1582 10.1434 16.4475Z" fill="white"/>
<path d="M36.3982 36.917C36.429 36.9043 36.4582 36.8861 36.4898 36.879C37.0038 36.7632 37.4349 36.4921 37.8328 36.1592C37.892 36.1093 37.9512 36.0586 38.0057 36.0039C38.4913 35.5164 38.9808 35.0313 39.46 34.5375C39.7593 34.2291 40.0048 33.8788 40.1698 33.4801C40.2306 33.3342 40.2583 33.1741 40.3025 33.0211C40.3072 33.0037 40.3183 32.9878 40.327 32.9712C40.327 34.2862 40.327 35.6012 40.327 36.9162C39.0179 36.917 37.708 36.917 36.3982 36.917Z" fill="white"/>
</svg>
